<?xml version="1.0" encoding="utf-8"?>
<!-- Generator: Adobe Illustrator 19.0.0, SVG Export Plug-In . SVG Version: 6.00 Build 0)  -->
<svg version="1.1" id="Layer_1" xmlns="http://www.w3.org/2000/svg" xmlns:xlink="http://www.w3.org/1999/xlink" x="0px" y="0px"
	 viewBox="0 0 156 156" style="enable-background:new 0 0 156 156;" xml:space="preserve">
<style type="text/css">
	.st0{clip-path:url(#SVGID_2_);fill:#ED1E79;}
	.st1{clip-path:url(#SVGID_2_);fill:#FF7BAC;}
</style>
<g>
	<defs>
		<rect id="SVGID_1_" x="-193" y="-186.9" width="566.9" height="566.9"/>
	</defs>
	<clipPath id="SVGID_2_">
		<use xlink:href="#SVGID_1_"  style="overflow:visible;"/>
	</clipPath>
	<path class="st0" d="M126.8,70.3c0,2.4-1.9,4.3-4.3,4.3s-4.3-1.9-4.3-4.3c0-2.4,1.9-4.3,4.3-4.3S126.8,67.9,126.8,70.3"/>
	<path class="st0" d="M128.7,88.1c-1.3-0.5-3.6-1.3-6.6-1.3c-2.5,0.1-4.5,0.7-5.7,1.3V82c0-3.4,2.8-6.2,6.2-6.2s6.2,2.8,6.2,6.2
		V88.1z"/>
	<path class="st0" d="M34,72.4c0,2.4-1.9,4.3-4.3,4.3s-4.3-1.9-4.3-4.3c0-2.4,1.9-4.3,4.3-4.3S34,70,34,72.4"/>
	<path class="st0" d="M35.8,90.2c-0.7-0.5-3.1-2.2-6.6-2.1c-3,0.1-5,1.5-5.7,2.1v-6.2c0-3.4,2.8-6.2,6.2-6.2s6.2,2.8,6.2,6.2V90.2z"
		/>
	<path class="st0" d="M81.7,115.9c0,2.4-1.9,4.3-4.3,4.3s-4.3-1.9-4.3-4.3c0-2.4,1.9-4.3,4.3-4.3S81.7,113.5,81.7,115.9"/>
	<path class="st0" d="M83.5,133.7c-0.7-0.6-2.8-2-5.7-2.1c-3.5-0.1-5.9,1.6-6.6,2.1v-6.2c0-3.4,2.8-6.2,6.2-6.2s6.2,2.8,6.2,6.2
		V133.7z"/>
	<path class="st1" d="M53,39.8c0.3,0.1,0.7,0.3,1,0.4c-0.4,0.2-0.7,0.4-1,0.6c-0.4,0.2-0.8,0.5-1.2,0.7c-1.3,0.9-2.6,1.8-3.8,2.8
		c-6.9,5.5-12.2,13.1-15,22.1c-0.2,0.5-0.7,0.9-1.2,0.9c-0.1,0-0.3,0-0.4,0c-0.7-0.2-1-0.9-0.8-1.6c3-9.6,9.1-18.3,17.2-24.3
		c0,0,0.1,0,0.1-0.1c0.9-0.7,1.9-1.3,2.8-2c0.7-0.5,1.4-0.9,2.2-1.3V39.8z"/>
	<path class="st1" d="M121.2,64.6c-0.7,0.3-1.4-0.1-1.6-0.7c-2.8-7.5-7.5-14-13.4-18.9c-1.4-1.2-2.9-2.3-4.4-3.3
		c-0.2-0.1-0.4-0.3-0.6-0.4c-0.5-0.3-1-0.6-1.5-0.9c0.5-0.3,1-0.5,1.5-0.6v-1.5c0.6,0.3,1.1,0.7,1.6,1c0.6,0.4,1.1,0.8,1.7,1.1
		c0.3,0.2,0.6,0.4,0.9,0.7c0.3,0.2,0.5,0.4,0.8,0.6c7.2,5.5,12.6,12.8,15.8,21.3C122.2,63.7,121.9,64.4,121.2,64.6"/>
	<path class="st1" d="M68,127.5c-0.1,0-0.2,0-0.2,0c-18.1-3.4-32.8-17.1-37.6-34.8c-0.2-0.7,0.2-1.4,0.9-1.5
		c0.7-0.2,1.4,0.2,1.5,0.9c4.5,16.8,18.6,29.8,35.7,33c0.7,0.1,1.1,0.8,1,1.5C69.1,127.1,68.6,127.5,68,127.5"/>
	<path class="st1" d="M85.5,127.5c-0.6,0-1.1-0.4-1.2-1c-0.1-0.7,0.3-1.3,1-1.5c17.8-3.3,31.9-16.9,36-34.5c0.2-0.7,0.8-1.1,1.5-0.9
		c0.7,0.2,1.1,0.8,0.9,1.5c-4.4,18.6-19.3,32.8-38,36.3C85.7,127.5,85.6,127.5,85.5,127.5"/>
	<path class="st0" d="M77.6,154.1c-41.9,0-76-34.1-76-76c0-41.9,34.1-76,76-76s76,34.1,76,76C153.6,120,119.5,154.1,77.6,154.1
		 M77.6,6.9c-39.3,0-71.3,32-71.3,71.3s32,71.3,71.3,71.3s71.3-32,71.3-71.3S116.9,6.9,77.6,6.9"/>
	<path class="st0" d="M48,51.6h58.2v-31H48V51.6z M101.2,46.6H53v-21h48.2V46.6z"/>
	<path class="st0" d="M59.1,20.6c-0.1,1.8-0.7,3.5-1.6,5c-0.3,0.5-0.6,0.9-1,1.3c-1,1.1-2.2,1.9-3.4,2.4c-1.1,0.5-2.3,0.7-3.5,0.8
		c-0.5,0-1,0-1.5-0.1v2c0.4,0,0.7,0,1.1,0c0.1,0,0.3,0,0.5,0c1.2,0,2.3-0.3,3.4-0.6c1.9-0.6,3.5-1.7,4.9-3.2
		c0.8-0.8,1.4-1.7,1.9-2.7c0.8-1.5,1.3-3.2,1.3-5H59.1z"/>
	<path class="st0" d="M60.2,46.6c-0.7-1.6-1.7-3.1-3-4.3c-1-0.9-2.1-1.6-3.2-2.1c-0.3-0.1-0.7-0.3-1-0.4c-0.7-0.2-1.4-0.4-2.2-0.5
		c-0.7-0.1-1.4-0.1-2.1-0.1c-0.2,0-0.5,0-0.7,0.1v2c0.2,0,0.5,0,0.7-0.1c0.1,0,0.3,0,0.4,0c0.9,0,1.9,0.1,2.7,0.4
		c0.4,0.1,0.8,0.3,1.2,0.4c1.1,0.4,2,1.1,2.9,1.9c0.9,0.8,1.6,1.8,2.1,2.8c0.6,1.3,1,2.7,1,4.1c0,0.1,0,0.3,0,0.4c0,0.2,0,0.3,0,0.5
		h2c0-0.3,0-0.6,0-0.9C61,49.3,60.7,47.9,60.2,46.6"/>
	<path class="st0" d="M105.5,30.1c-1.5,0.1-2.9-0.2-4.3-0.8c-1.1-0.4-2.1-1.1-2.9-1.9c-0.6-0.6-1.1-1.2-1.6-1.8
		c-1-1.5-1.5-3.2-1.6-5h-2c0.1,1.8,0.5,3.5,1.3,5c0.6,1.2,1.5,2.3,2.5,3.3c1.3,1.2,2.7,2,4.3,2.6c1.2,0.4,2.5,0.6,3.9,0.6
		c0.1,0,0.3,0,0.5,0c0.2,0,0.5,0,0.7,0v-2C106,30.1,105.7,30.1,105.5,30.1"/>
	<path class="st0" d="M104.6,39.2c-0.6,0-1.2,0.1-1.8,0.2c-0.6,0.1-1.1,0.3-1.6,0.4c-0.5,0.2-1,0.4-1.5,0.6
		c-1.3,0.6-2.4,1.5-3.4,2.6c-1,1.1-1.8,2.3-2.3,3.7c-0.6,1.5-0.9,3.2-0.9,4.9v0.1h2c0,0,0-0.1,0-0.1c-0.1-1.7,0.3-3.4,1.1-4.9
		c0.4-0.8,0.9-1.6,1.6-2.3c1-1.1,2.1-1.9,3.4-2.4c0.2-0.1,0.4-0.1,0.6-0.2c0.9-0.3,1.9-0.5,2.9-0.6c0.1,0,0.3,0,0.4,0
		c0.1,0,0.2,0,0.4,0c0.3,0,0.5,0,0.8,0.1v-2C105.7,39.1,105.2,39.1,104.6,39.2"/>
	<path class="st1" d="M80.2,36c-0.3-0.4-0.8-0.8-1.3-1c-0.4-0.2-0.8-0.3-1.3-0.5c-0.2-0.1-0.4-0.1-0.6-0.2c-0.6-0.2-1.1-0.3-1.4-0.4
		c0,0,0,0,0,0c-0.3-0.1-0.6-0.3-0.8-0.5c-0.2-0.2-0.3-0.5-0.3-0.9c0-0.5,0.2-0.9,0.5-1.2c0.2-0.1,0.4-0.2,0.6-0.3
		c0.2-0.1,0.5-0.1,0.8-0.1c0.5,0,0.9,0.1,1.3,0.3c0.1,0,0.2,0.1,0.2,0.2c0.4,0.3,0.6,0.7,0.6,1.1h2.1c-0.1-1-0.5-1.8-1.2-2.4
		c-0.5-0.4-1.1-0.6-1.8-0.8v-1.2h-2v1.1c-0.4,0.1-0.8,0.2-1.2,0.3c-0.6,0.3-1.1,0.7-1.4,1.2c-0.3,0.5-0.5,1.1-0.5,1.8
		c0,0.7,0.2,1.3,0.5,1.8c0.3,0.4,0.8,0.8,1.2,1c0.4,0.2,0.8,0.3,1.4,0.5c0.2,0,0.3,0.1,0.5,0.1c0.6,0.2,1.1,0.3,1.4,0.4
		c0,0,0,0,0.1,0c0.3,0.1,0.6,0.3,0.8,0.6c0.2,0.2,0.3,0.6,0.3,1c0,0.5-0.2,0.9-0.6,1.3c-0.2,0.1-0.4,0.3-0.6,0.3
		c-0.3,0.1-0.6,0.1-1,0.1c-0.4,0-0.8-0.1-1.1-0.2c-0.2-0.1-0.3-0.2-0.5-0.3c-0.4-0.3-0.6-0.8-0.6-1.3h-2.1c0,0.7,0.2,1.3,0.5,1.8
		c0.4,0.5,0.9,0.9,1.5,1.2c0.3,0.1,0.7,0.3,1.1,0.3v1.9h2v-1.9c0.4-0.1,0.9-0.2,1.2-0.4c0.6-0.3,1.1-0.8,1.4-1.3
		c0.3-0.5,0.5-1.1,0.5-1.7C80.7,37.1,80.5,36.5,80.2,36"/>
	<path class="st0" d="M60,84.4c1.2-1.1,2.2-2.2,3-3.3c0.8-1.1,1.2-2.2,1.2-3.2c0-0.6-0.1-1.1-0.4-1.4c-0.3-0.3-0.7-0.5-1.2-0.5
		c-0.6,0-1,0.2-1.3,0.7c-0.3,0.5-0.5,1.2-0.4,2.1h-5.5c0.1-1.7,0.4-3.1,1.1-4.3c0.7-1.1,1.6-2,2.7-2.5c1.1-0.5,2.4-0.8,3.7-0.8
		c2.4,0,4.1,0.6,5.3,1.8c1.2,1.2,1.7,2.7,1.7,4.6c0,2-0.7,3.9-2,5.6c-1.3,1.8-3,3.3-5,4.7h7.2v4.6H55.4v-4.2
		C57.3,86.7,58.8,85.4,60,84.4"/>
	<path class="st0" d="M73,73.3c0.9-0.9,2.1-1.3,3.6-1.3c1.5,0,2.7,0.4,3.6,1.3c0.9,0.9,1.4,2.1,1.4,3.8c0,1.6-0.5,2.9-1.4,3.7
		c-0.9,0.9-2.1,1.3-3.6,1.3c-1.5,0-2.7-0.4-3.6-1.3c-0.9-0.9-1.4-2.1-1.4-3.7C71.6,75.4,72.1,74.1,73,73.3 M75.4,77
		c0,1.2,0.4,1.7,1.2,1.7c0.4,0,0.7-0.1,0.9-0.4c0.2-0.3,0.3-0.7,0.3-1.3s-0.1-1-0.3-1.3c-0.2-0.3-0.5-0.4-0.9-0.4
		C75.8,75.3,75.4,75.9,75.4,77 M92.2,72.3l-11,20.4h-5.4l11-20.4H92.2z M87.7,84.2c0.9-0.9,2.1-1.3,3.6-1.3c1.5,0,2.7,0.4,3.6,1.3
		c0.9,0.9,1.4,2.1,1.4,3.7c0,1.6-0.5,2.9-1.4,3.8C94,92.6,92.8,93,91.3,93c-1.5,0-2.7-0.4-3.6-1.3c-0.9-0.9-1.4-2.1-1.4-3.8
		C86.3,86.3,86.7,85.1,87.7,84.2 M90,87.9c0,1.2,0.4,1.8,1.2,1.8c0.4,0,0.7-0.1,0.9-0.4c0.2-0.3,0.3-0.7,0.3-1.3
		c0-0.6-0.1-1-0.3-1.3c-0.2-0.3-0.5-0.4-0.9-0.4C90.4,86.2,90,86.8,90,87.9"/>
</g>
</svg>
