<?xml version="1.0" encoding="utf-8"?>
<!-- Generator: Adobe Illustrator 19.0.0, SVG Export Plug-In . SVG Version: 6.00 Build 0)  -->
<svg version="1.1" id="Layer_1" xmlns="http://www.w3.org/2000/svg" xmlns:xlink="http://www.w3.org/1999/xlink" x="0px" y="0px"
	 viewBox="0 0 160 155" style="enable-background:new 0 0 160 155;" xml:space="preserve">
<style type="text/css">
	.st0{clip-path:url(#SVGID_2_);fill:#ED1E79;}
	.st1{clip-path:url(#SVGID_2_);fill:#FFFFFF;}
</style>
<g>
	<defs>
		<rect id="SVGID_1_" x="-181" y="-201.9" width="566.9" height="566.9"/>
	</defs>
	<clipPath id="SVGID_2_">
		<use xlink:href="#SVGID_1_"  style="overflow:visible;"/>
	</clipPath>
	<path class="st0" d="M79.5,154.1c-41.9,0-76-34.1-76-76c0-41.9,34.1-76,76-76s76,34.1,76,76C155.5,120,121.4,154.1,79.5,154.1
		 M79.5,6.9c-39.3,0-71.3,32-71.3,71.3s32,71.3,71.3,71.3s71.3-32,71.3-71.3S118.8,6.9,79.5,6.9"/>
	<polygon class="st0" points="49,36.6 49,56.2 50.5,52.9 51.3,52.9 51.3,38.9 105.6,38.9 105.6,52.9 106.5,52.9 107.9,55.6 
		107.9,36.6 	"/>
	<path class="st0" d="M49.6,76.8h2.3v-2.5h-2.3V76.8z M106.2,114.6H51.9V85.1c-0.8-0.4-1.6-1-2.3-1.7v33.6h58.9V83.5
		c-0.7,0.7-1.5,1.2-2.3,1.7V114.6z M106.2,76.8h2.3v-2.5h-2.3V76.8z"/>
	<path class="st0" d="M51.3,52.9h54.3v-2.3H51.3V52.9z M107.9,50.7l-0.1-0.1H49l-11.5,26h84.4L107.9,50.7z M41,74.3l8-18.1l1.5-3.3
		h56l1.4,2.7l10.1,18.7H41z M51.3,52.9h54.3v-2.3H51.3V52.9z"/>
	<path class="st0" d="M67.2,75.8c0,0.3,0,0.5,0,0.8c-0.4,6-5.4,10.7-11.4,10.7c-1.3,0-2.6-0.2-3.8-0.7c-0.8-0.3-1.6-0.7-2.3-1.1
		c-3-1.9-5.1-5.2-5.3-8.9c0-0.3,0-0.5,0-0.8h2.3c0,0.3,0,0.5,0,0.8c0.2,2.4,1.3,4.5,3,6.1c0.7,0.6,1.5,1.1,2.3,1.5
		c1.2,0.5,2.5,0.8,3.8,0.8c4.8,0,8.8-3.7,9.1-8.4c0-0.3,0-0.5,0-0.8H67.2z"/>
	<path class="st0" d="M78.7,87.3c-6.3,0-11.5-5.1-11.5-11.5h2.3c0,5.1,4.1,9.2,9.2,9.2c5.1,0,9.2-4.1,9.2-9.2h2.3
		C90.1,82.2,85,87.3,78.7,87.3"/>
	<path class="st0" d="M113.9,75.8c0,0.3,0,0.5,0,0.8c-0.2,3.8-2.3,7-5.3,8.9c-0.7,0.5-1.5,0.8-2.3,1.1c-1.2,0.4-2.5,0.7-3.8,0.7
		c-6.1,0-11.1-4.7-11.4-10.7c0-0.3,0-0.5,0-0.8h2.3c0,0.3,0,0.5,0,0.8c0.4,4.7,4.3,8.4,9.1,8.4c1.4,0,2.7-0.3,3.8-0.8
		c0.8-0.4,1.6-0.9,2.3-1.5c1.7-1.5,2.8-3.7,3-6.1c0-0.3,0-0.5,0-0.8H113.9z"/>
	<rect x="51.9" y="105.7" class="st0" width="55.8" height="9.2"/>
	<polygon class="st0" points="67.6,93.2 67.6,90.1 73,90.1 73,102.3 69.4,102.3 69.4,93.2 	"/>
	<path class="st0" d="M75.4,91.1c0.6-0.5,1.3-0.8,2.2-0.8c0.9,0,1.6,0.3,2.2,0.8c0.6,0.5,0.8,1.2,0.8,2.2c0,0.9-0.3,1.7-0.8,2.2
		c-0.6,0.5-1.3,0.8-2.2,0.8s-1.6-0.3-2.2-0.8c-0.6-0.5-0.9-1.2-0.9-2.2C74.5,92.3,74.8,91.6,75.4,91.1 M76.9,93.3c0,0.7,0.2,1,0.7,1
		c0.2,0,0.4-0.1,0.6-0.3c0.1-0.2,0.2-0.4,0.2-0.8c0-0.3-0.1-0.6-0.2-0.8c-0.1-0.2-0.3-0.3-0.6-0.3C77.1,92.3,76.9,92.6,76.9,93.3
		 M87,90.5l-6.6,11.8h-3.3l6.6-11.8H87z M84.3,97.4c0.6-0.5,1.3-0.8,2.2-0.8c0.9,0,1.6,0.3,2.2,0.8c0.6,0.5,0.8,1.2,0.8,2.2
		c0,0.9-0.3,1.7-0.8,2.2c-0.6,0.5-1.3,0.8-2.2,0.8c-0.9,0-1.6-0.3-2.2-0.8c-0.6-0.5-0.9-1.2-0.9-2.2C83.4,98.6,83.7,97.9,84.3,97.4
		 M85.7,99.6c0,0.7,0.2,1,0.7,1c0.2,0,0.4-0.1,0.5-0.3c0.1-0.2,0.2-0.4,0.2-0.8c0-0.3-0.1-0.6-0.2-0.7c-0.1-0.2-0.3-0.3-0.5-0.3
		C86,98.6,85.7,98.9,85.7,99.6"/>
	<path class="st1" d="M66.8,113.4c-0.3-0.3-0.5-0.6-0.5-1.1h1.3c0,0.2,0.1,0.3,0.1,0.3c0.1,0.1,0.2,0.1,0.3,0.1c0.1,0,0.2,0,0.3-0.1
		c0.1-0.1,0.1-0.1,0.1-0.2c0-0.1-0.1-0.2-0.2-0.3c-0.1-0.1-0.3-0.2-0.6-0.2c-0.3-0.1-0.5-0.2-0.7-0.3c-0.2-0.1-0.3-0.2-0.5-0.4
		c-0.1-0.2-0.2-0.4-0.2-0.7c0-0.3,0.1-0.5,0.2-0.8c0.1-0.2,0.3-0.4,0.6-0.5c0.3-0.1,0.6-0.2,0.9-0.2c0.5,0,0.9,0.1,1.3,0.4
		c0.3,0.2,0.5,0.6,0.5,1h-1.4c0-0.1,0-0.2-0.1-0.3c-0.1-0.1-0.2-0.1-0.3-0.1c-0.1,0-0.2,0-0.2,0.1c-0.1,0.1-0.1,0.1-0.1,0.2
		c0,0.1,0,0.2,0.1,0.2c0.1,0.1,0.1,0.1,0.2,0.2s0.2,0.1,0.4,0.2c0.3,0.1,0.5,0.2,0.7,0.3s0.3,0.2,0.5,0.4s0.2,0.4,0.2,0.7
		c0,0.3-0.1,0.5-0.2,0.7c-0.1,0.2-0.3,0.4-0.6,0.5c-0.3,0.1-0.6,0.2-0.9,0.2C67.6,113.8,67.1,113.7,66.8,113.4"/>
	<polygon class="st1" points="71.7,110.2 71.7,111 73.1,111 73.1,111.9 71.7,111.9 71.7,112.7 73.3,112.7 73.3,113.8 70.4,113.8 
		70.4,109.2 73.3,109.2 73.3,110.2 	"/>
	<polygon class="st1" points="75.2,112.8 76.6,112.8 76.6,113.8 73.9,113.8 73.9,109.2 75.2,109.2 	"/>
	<polygon class="st1" points="78.4,112.8 79.8,112.8 79.8,113.8 77.1,113.8 77.1,109.2 78.4,109.2 	"/>
	<polygon class="st1" points="81.5,110.2 81.5,111 83,111 83,111.9 81.5,111.9 81.5,112.7 83.2,112.7 83.2,113.8 80.3,113.8 
		80.3,109.2 83.2,109.2 83.2,110.2 	"/>
	<path class="st1" d="M86.1,113.8l-0.9-1.7H85v1.7h-1.3v-4.5h2c0.4,0,0.7,0.1,0.9,0.2c0.3,0.1,0.4,0.3,0.6,0.5
		c0.1,0.2,0.2,0.5,0.2,0.7c0,0.3-0.1,0.6-0.3,0.8c-0.2,0.2-0.4,0.4-0.7,0.5l1,1.8H86.1z M85,111.2h0.6c0.2,0,0.3,0,0.4-0.1
		c0.1-0.1,0.1-0.2,0.1-0.4c0-0.1,0-0.3-0.1-0.3c-0.1-0.1-0.2-0.1-0.4-0.1H85V111.2z"/>
	<path class="st1" d="M88.5,113.4c-0.3-0.3-0.5-0.6-0.5-1.1h1.3c0,0.2,0.1,0.3,0.1,0.3c0.1,0.1,0.2,0.1,0.3,0.1c0.1,0,0.2,0,0.3-0.1
		c0.1-0.1,0.1-0.1,0.1-0.2c0-0.1-0.1-0.2-0.2-0.3c-0.1-0.1-0.3-0.2-0.6-0.2c-0.3-0.1-0.5-0.2-0.7-0.3c-0.2-0.1-0.3-0.2-0.5-0.4
		c-0.1-0.2-0.2-0.4-0.2-0.7c0-0.3,0.1-0.5,0.2-0.8c0.1-0.2,0.3-0.4,0.6-0.5c0.3-0.1,0.6-0.2,0.9-0.2c0.5,0,0.9,0.1,1.3,0.4
		c0.3,0.2,0.5,0.6,0.5,1H90c0-0.1,0-0.2-0.1-0.3c-0.1-0.1-0.2-0.1-0.3-0.1c-0.1,0-0.2,0-0.2,0.1c-0.1,0.1-0.1,0.1-0.1,0.2
		c0,0.1,0,0.2,0.1,0.2c0.1,0.1,0.1,0.1,0.2,0.2s0.2,0.1,0.4,0.2c0.3,0.1,0.5,0.2,0.7,0.3c0.2,0.1,0.3,0.2,0.5,0.4
		c0.1,0.2,0.2,0.4,0.2,0.7c0,0.3-0.1,0.5-0.2,0.7c-0.1,0.2-0.3,0.4-0.6,0.5c-0.3,0.1-0.6,0.2-0.9,0.2
		C89.2,113.8,88.8,113.7,88.5,113.4"/>
</g>
</svg>
