<svg width="24" height="21" viewBox="0 0 24 21" fill="none" xmlns="http://www.w3.org/2000/svg">
<path d="M7.60568 12.9336C7.33572 12.9336 7.07182 12.8564 6.84736 12.7116C6.6229 12.5668 6.44795 12.361 6.34465 12.1203C6.24134 11.8795 6.21431 11.6146 6.26697 11.359C6.31964 11.1034 6.44964 10.8686 6.64053 10.6843C6.83141 10.5001 7.07462 10.3746 7.33939 10.3237C7.60416 10.2729 7.8786 10.299 8.12801 10.3987C8.37742 10.4985 8.59059 10.6673 8.74057 10.884C8.89055 11.1007 8.9706 11.3554 8.9706 11.616C8.97019 11.9654 8.82625 12.3003 8.57037 12.5473C8.31449 12.7943 7.96755 12.9332 7.60568 12.9336ZM15.4053 10.2984C15.1353 10.2984 14.8714 10.3757 14.647 10.5205C14.4225 10.6653 14.2475 10.871 14.1442 11.1118C14.0409 11.3526 14.0139 11.6175 14.0666 11.8731C14.1192 12.1287 14.2492 12.3634 14.4401 12.5477C14.631 12.732 14.8742 12.8575 15.139 12.9083C15.4038 12.9591 15.6782 12.9331 15.9276 12.8333C16.177 12.7336 16.3902 12.5647 16.5402 12.348C16.6901 12.1314 16.7702 11.8766 16.7702 11.616C16.7698 11.2667 16.6258 10.9318 16.37 10.6848C16.1141 10.4378 15.7671 10.2988 15.4053 10.2984ZM14.4569 15.2554C13.5442 15.7094 12.5323 15.9462 11.5055 15.9462C10.4787 15.9462 9.46677 15.7094 8.55401 15.2554C8.48567 15.2205 8.41082 15.1989 8.33379 15.1921C8.25677 15.1852 8.1791 15.1932 8.10529 15.2155C8.03147 15.2378 7.96297 15.274 7.90375 15.322C7.84453 15.37 7.79576 15.4289 7.76028 15.4953C7.72479 15.5616 7.70329 15.6341 7.69701 15.7085C7.69073 15.783 7.69981 15.8578 7.72371 15.9289C7.74762 15.9999 7.78587 16.0656 7.83627 16.1222C7.88666 16.1789 7.94819 16.2253 8.0173 16.2589C9.09603 16.7954 10.292 17.0754 11.5055 17.0754C12.719 17.0754 13.9149 16.7954 14.9936 16.2589C15.0628 16.2253 15.1243 16.1789 15.1747 16.1222C15.2251 16.0656 15.2633 15.9999 15.2872 15.9289C15.3111 15.8578 15.3202 15.783 15.3139 15.7085C15.3077 15.6341 15.2862 15.5616 15.2507 15.4953C15.2152 15.4289 15.1664 15.37 15.1072 15.322C15.048 15.274 14.9795 15.2378 14.9057 15.2155C14.8318 15.1932 14.7542 15.1852 14.6771 15.1921C14.6001 15.1989 14.5253 15.2205 14.4569 15.2554ZM21.9736 11.1362C22.1431 11.657 22.2295 12.1996 22.2299 12.7454C22.2299 14.7462 21.0857 16.6127 19.0081 18.0012C16.9961 19.3458 14.3317 20.0863 11.5055 20.0863C8.67929 20.0863 6.01485 19.3458 4.00285 18.0012C1.92523 16.6127 0.781033 14.7462 0.781033 12.7454C0.781397 12.1996 0.867824 11.657 1.03735 11.1362C0.738471 10.8925 0.493287 10.5934 0.316313 10.2566C0.13934 9.91979 0.0341733 9.55212 0.00704128 9.17537C-0.0200907 8.79862 0.0313633 8.42044 0.158357 8.06323C0.28535 7.70601 0.485301 7.37703 0.746371 7.09575C1.00744 6.81448 1.32432 6.58662 1.67825 6.42569C2.03218 6.26476 2.41596 6.17401 2.80688 6.15883C3.19779 6.14364 3.58788 6.20433 3.95406 6.33729C4.32024 6.47025 4.65507 6.67279 4.9387 6.93291C6.67899 6.0136 8.80048 5.48261 11.0084 5.41296L11.7085 1.359C11.7339 1.21254 11.818 1.08161 11.9426 0.994529C12.0672 0.907442 12.2223 0.871188 12.3743 0.893602L15.4053 1.34366C15.6206 0.88928 15.999 0.525429 16.4705 0.31924C16.942 0.113051 17.4748 0.0784393 17.9707 0.221791C18.4666 0.365143 18.892 0.676784 19.1685 1.09921C19.4449 1.52164 19.5538 2.02634 19.475 2.52019C19.3962 3.01404 19.135 3.46372 18.7397 3.78623C18.3443 4.10875 17.8414 4.28235 17.3239 4.275C16.8063 4.26765 16.309 4.07984 15.9236 3.74623C15.5382 3.41262 15.2909 2.95573 15.2271 2.45985L12.7674 2.09469L12.1932 5.42106C14.3322 5.51442 16.3823 6.04005 18.0722 6.93281C18.3559 6.67289 18.6907 6.47053 19.0569 6.33772C19.423 6.20491 19.813 6.14435 20.2038 6.15961C20.5946 6.17488 20.9783 6.26566 21.3321 6.42659C21.6859 6.58752 22.0027 6.81533 22.2637 7.09654C22.5247 7.37774 22.7246 7.70663 22.8516 8.06373C22.9786 8.42083 23.0301 8.7989 23.003 9.17556C22.976 9.55222 22.8709 9.91981 22.6941 10.2566C22.5173 10.5934 22.2723 10.8925 21.9736 11.1362ZM16.3802 2.20461C16.3802 2.39075 16.4374 2.57271 16.5445 2.72748C16.6517 2.88225 16.8039 3.00288 16.9821 3.07411C17.1602 3.14535 17.3562 3.16398 17.5454 3.12767C17.7345 3.09136 17.9082 3.00172 18.0446 2.8701C18.1809 2.73848 18.2738 2.57078 18.3114 2.38822C18.349 2.20566 18.3297 2.01642 18.2559 1.84445C18.1821 1.67248 18.0571 1.5255 17.8968 1.42208C17.7365 1.31867 17.548 1.26347 17.3552 1.26347C17.0967 1.26377 16.8489 1.36302 16.6661 1.53945C16.4833 1.71589 16.3805 1.9551 16.3802 2.20461ZM21.8399 8.98083C21.8399 8.62312 21.7226 8.27459 21.5048 7.98518C21.2871 7.69577 20.98 7.48033 20.6276 7.36973C20.2752 7.25913 19.8955 7.25905 19.5431 7.36949C19.1906 7.47993 18.8834 7.69523 18.6655 7.98454C18.5791 8.09902 18.4513 8.17796 18.3074 8.20573C18.1635 8.2335 18.014 8.20807 17.8887 8.13446C17.8833 8.13133 17.8781 8.1281 17.8729 8.12477C16.1168 7.09893 13.857 6.53415 11.507 6.53386L11.5062 6.53396L11.5052 6.53386C9.15458 6.53386 6.89426 7.09883 5.13788 8.12486C5.12722 8.1317 5.11624 8.13813 5.10493 8.14416C4.98006 8.21199 4.83374 8.23321 4.69374 8.20378C4.55374 8.17436 4.4298 8.09634 4.34545 7.98454C4.19209 7.78104 3.9937 7.61308 3.76468 7.49286C3.53567 7.37263 3.28179 7.30316 3.02149 7.2895C2.76119 7.27583 2.501 7.31831 2.25984 7.41385C2.01867 7.50939 1.80258 7.65559 1.62726 7.84183C1.45194 8.02807 1.32181 8.24967 1.2463 8.49053C1.1708 8.73139 1.15183 8.98547 1.19076 9.23429C1.2297 9.48311 1.32556 9.72044 1.4714 9.92903C1.61723 10.1376 1.80936 10.3122 2.03384 10.4402C2.15649 10.5102 2.24841 10.6211 2.29236 10.752C2.3363 10.8829 2.32925 11.0247 2.27251 11.1509C2.06133 11.6579 1.9522 12.199 1.95097 12.7454C1.95097 16.1705 6.23714 18.9569 11.5055 18.9569C16.7738 18.9569 21.06 16.1705 21.06 12.7454C21.0588 12.1977 20.9491 11.6553 20.737 11.1473C20.6814 11.0214 20.6751 10.8802 20.7193 10.7502C20.7635 10.6201 20.8551 10.5099 20.9771 10.4402C21.2393 10.2897 21.4567 10.0761 21.6079 9.82034C21.7591 9.56457 21.8391 9.27533 21.8399 8.98083Z" fill="#1E2436"/>
</svg>
