<svg width="18" height="19" viewBox="0 0 18 19" fill="none" xmlns="http://www.w3.org/2000/svg">
<path fill-rule="evenodd" clip-rule="evenodd" d="M5.28955 0.843062C6.24927 0.798881 6.55527 0.789062 9 0.789062C11.4447 0.789062 11.7507 0.799699 12.7096 0.843062C13.6685 0.886426 14.3231 1.03943 14.8958 1.26115C15.4955 1.48779 16.0396 1.84206 16.4896 2.30024C16.9478 2.74943 17.3013 3.2927 17.5271 3.89324C17.7496 4.46597 17.9018 5.12052 17.946 6.07779C17.9902 7.03915 18 7.34515 18 9.78906C18 12.2338 17.9894 12.5398 17.946 13.4995C17.9026 14.4568 17.7496 15.1113 17.5271 15.6841C17.3013 16.2847 16.9472 16.8289 16.4896 17.2787C16.0396 17.7369 15.4955 18.0903 14.8958 18.3162C14.3231 18.5387 13.6685 18.6909 12.7113 18.7351C11.7507 18.7792 11.4447 18.7891 9 18.7891C6.55527 18.7891 6.24927 18.7784 5.28955 18.7351C4.33227 18.6917 3.67773 18.5387 3.105 18.3162C2.50439 18.0903 1.96022 17.7363 1.51036 17.2787C1.05249 16.8292 0.698167 16.2853 0.472091 15.6849C0.250364 15.1122 0.0981818 14.4576 0.054 13.5003C0.00981817 12.539 0 12.233 0 9.78906C0 7.34434 0.0106364 7.03834 0.054 6.07943C0.0973636 5.12052 0.250364 4.46597 0.472091 3.89324C0.6985 3.29277 1.0531 2.74886 1.51118 2.29943C1.9604 1.84165 2.50402 1.48733 3.10418 1.26115C3.67691 1.03943 4.33145 0.887244 5.28873 0.843062H5.28955ZM12.6368 2.46306C11.6877 2.4197 11.403 2.4107 9 2.4107C6.597 2.4107 6.31227 2.4197 5.36318 2.46306C4.48527 2.50315 4.00909 2.64961 3.69164 2.77315C3.27191 2.93679 2.97164 3.1307 2.65664 3.4457C2.35804 3.7362 2.12824 4.08984 1.98409 4.4807C1.86055 4.79815 1.71409 5.27433 1.674 6.15224C1.63064 7.10134 1.62164 7.38606 1.62164 9.78906C1.62164 12.1921 1.63064 12.4768 1.674 13.4259C1.71409 14.3038 1.86055 14.78 1.98409 15.0974C2.12809 15.4877 2.358 15.842 2.65664 16.1324C2.94709 16.4311 3.30136 16.661 3.69164 16.805C4.00909 16.9285 4.48527 17.075 5.36318 17.1151C6.31227 17.1584 6.59618 17.1674 9 17.1674C11.4038 17.1674 11.6877 17.1584 12.6368 17.1151C13.5147 17.075 13.9909 16.9285 14.3084 16.805C14.7281 16.6413 15.0284 16.4474 15.3434 16.1324C15.642 15.842 15.8719 15.4877 16.0159 15.0974C16.1395 14.78 16.2859 14.3038 16.326 13.4259C16.3694 12.4768 16.3784 12.1921 16.3784 9.78906C16.3784 7.38606 16.3694 7.10134 16.326 6.15224C16.2859 5.27433 16.1395 4.79815 16.0159 4.4807C15.8523 4.06097 15.6584 3.7607 15.3434 3.4457C15.0528 3.14712 14.6992 2.91733 14.3084 2.77315C13.9909 2.64961 13.5147 2.50315 12.6368 2.46306ZM7.85045 12.5635C8.49245 12.8308 9.20731 12.8668 9.87294 12.6656C10.5386 12.4643 11.1137 12.0382 11.5 11.46C11.8864 10.8818 12.06 10.1874 11.9913 9.49542C11.9226 8.80343 11.6157 8.15677 11.1232 7.66588C10.8092 7.35209 10.4295 7.11182 10.0115 6.96236C9.59355 6.81291 9.14762 6.75799 8.70586 6.80157C8.2641 6.84514 7.83749 6.98612 7.45675 7.21435C7.07601 7.44259 6.75061 7.7524 6.50397 8.12149C6.25734 8.49057 6.09561 8.90975 6.03042 9.34885C5.96524 9.78794 5.99821 10.236 6.12699 10.6608C6.25576 11.0857 6.47712 11.4767 6.77514 11.8057C7.07315 12.1347 7.4404 12.3935 7.85045 12.5635ZM5.72891 6.51797C6.15847 6.08841 6.66844 5.74766 7.2297 5.51518C7.79095 5.2827 8.3925 5.16304 9 5.16304C9.6075 5.16304 10.209 5.2827 10.7703 5.51518C11.3316 5.74766 11.8415 6.08841 12.2711 6.51797C12.7007 6.94754 13.0414 7.45751 13.2739 8.01876C13.5064 8.58002 13.626 9.18156 13.626 9.78906C13.626 10.3966 13.5064 10.9981 13.2739 11.5594C13.0414 12.1206 12.7007 12.6306 12.2711 13.0602C11.4035 13.9277 10.2269 14.4151 9 14.4151C7.7731 14.4151 6.59646 13.9277 5.72891 13.0602C4.86136 12.1926 4.37398 11.016 4.37398 9.78906C4.37398 8.56217 4.86136 7.38552 5.72891 6.51797ZM14.652 5.85197C14.7584 5.75156 14.8437 5.6308 14.9026 5.49686C14.9616 5.36292 14.993 5.21851 14.9952 5.07219C14.9973 4.92586 14.97 4.7806 14.915 4.645C14.86 4.50939 14.7784 4.38621 14.6749 4.28273C14.5714 4.17925 14.4482 4.09759 14.3126 4.04258C14.177 3.98756 14.0317 3.96032 13.8854 3.96245C13.7391 3.96458 13.5947 3.99605 13.4607 4.055C13.3268 4.11394 13.2061 4.19916 13.1056 4.30561C12.9103 4.51263 12.8034 4.78762 12.8076 5.07219C12.8117 5.35676 12.9266 5.62851 13.1279 5.82975C13.3291 6.031 13.6008 6.14589 13.8854 6.15003C14.17 6.15418 14.445 6.04726 14.652 5.85197Z" fill="#1E2436"/>
</svg>
