<svg width="18" height="19" viewBox="0 0 18 19" fill="none" xmlns="http://www.w3.org/2000/svg">
<path d="M17.25 3.0466C17.25 3.0466 15.7365 3.9406 14.895 4.1941C14.4433 3.67474 13.843 3.30662 13.1753 3.13955C12.5076 2.97247 11.8046 3.0145 11.1616 3.25994C10.5185 3.50539 9.96633 3.94241 9.57974 4.51189C9.19314 5.08138 8.99077 5.75586 9 6.4441V7.1941C7.68198 7.22828 6.37596 6.93596 5.19826 6.34319C4.02056 5.75041 3.00774 4.87558 2.25 3.7966C2.25 3.7966 -0.75 10.5466 6 13.5466C4.4554 14.5951 2.61537 15.1208 0.75 15.0466C7.5 18.7966 15.75 15.0466 15.75 6.4216C15.75 6.2131 15.729 6.0046 15.69 5.7991C16.455 5.0446 17.25 3.0466 17.25 3.0466Z" stroke="#1E2436" stroke-width="1.5" stroke-linecap="round" stroke-linejoin="round"/>
</svg>
