<?xml version="1.0" standalone="no"?>
<!DOCTYPE svg PUBLIC "-//W3C//DTD SVG 20010904//EN"
 "http://www.w3.org/TR/2001/REC-SVG-20010904/DTD/svg10.dtd">
<svg version="1.0" xmlns="http://www.w3.org/2000/svg"
 width="2842.000000pt" height="2548.000000pt" viewBox="0 0 2842.000000 2548.000000"
 preserveAspectRatio="xMidYMid meet">

<g transform="translate(0.000000,2548.000000) scale(0.100000,-0.100000)"
fill="#000000" stroke="none">
<path d="M18330 25025 c-255 -38 -492 -123 -905 -325 -406 -199 -730 -406
-975 -625 -136 -122 -248 -215 -258 -215 -6 0 -12 -4 -14 -8 -1 -4 -32 -20
-68 -36 -51 -23 -83 -30 -155 -34 -103 -5 -116 -3 -603 98 -800 164 -1227 211
-1912 211 -656 0 -1099 -53 -1691 -202 -255 -64 -379 -74 -473 -39 -72 27
-186 105 -331 225 -489 404 -983 673 -1574 856 -622 193 -1013 111 -1446 -302
-487 -465 -828 -1113 -989 -1874 -80 -381 -99 -555 -142 -1280 -18 -306 -20
-949 -5 -1235 14 -250 6 -772 -14 -910 -54 -385 -135 -634 -359 -1103 -36 -75
-66 -139 -66 -142 0 -2 -11 -29 -25 -58 -54 -119 -91 -320 -80 -436 10 -102
23 -165 65 -306 73 -242 66 -313 -52 -515 -71 -121 -86 -215 -52 -316 30 -91
122 -271 174 -339 29 -38 56 -79 61 -92 11 -30 -2 -65 -47 -117 -49 -58 -93
-151 -100 -217 -5 -43 1 -91 26 -209 47 -223 43 -284 -37 -490 -75 -192 -102
-286 -197 -665 -152 -612 -186 -843 -191 -1295 -4 -340 4 -446 60 -795 44
-272 56 -378 57 -500 1 -192 -26 -306 -136 -563 -72 -169 -140 -351 -159 -427
-58 -226 -89 -563 -91 -980 l-1 -330 -32 -67 c-41 -87 -86 -134 -274 -288
-197 -162 -269 -210 -454 -306 -267 -137 -395 -235 -494 -379 -171 -247 -223
-524 -165 -885 8 -51 28 -129 95 -372 63 -226 69 -277 38 -326 -11 -18 -23
-22 -65 -22 -53 0 -72 8 -355 158 -317 167 -654 255 -1029 269 -345 12 -561
-52 -747 -221 -151 -138 -220 -293 -273 -610 -36 -221 -55 -294 -125 -490
-102 -287 -561 -1456 -726 -1848 -281 -667 -345 -880 -356 -1175 -9 -230 18
-359 122 -579 80 -169 165 -286 307 -422 258 -246 650 -400 1063 -419 154 -7
312 7 563 47 274 45 340 39 519 -41 91 -41 269 -93 373 -110 109 -18 481 -18
610 0 103 14 248 44 430 88 109 26 124 28 290 23 307 -7 552 -4 645 9 50 6
171 28 270 48 267 52 323 49 595 -37 204 -65 370 -107 507 -130 227 -39 554
-25 813 34 178 41 297 86 510 194 198 100 207 104 261 100 47 -3 72 -14 175
-75 250 -150 418 -212 770 -288 253 -54 308 -77 354 -154 231 -383 528 -634
950 -804 502 -202 1086 -241 1665 -112 354 79 708 252 972 477 155 132 301
297 548 623 204 268 219 285 278 310 55 23 80 19 237 -36 180 -63 407 -121
565 -145 167 -26 609 -27 770 -1 252 40 464 98 735 201 291 111 301 111 532 0
321 -153 580 -215 903 -214 254 0 405 25 670 111 101 32 150 43 220 46 86 5
97 3 230 -41 320 -104 483 -131 740 -123 106 4 233 15 338 31 223 34 354 34
590 -1 157 -23 214 -27 417 -27 210 0 252 3 396 27 268 45 362 38 622 -49 302
-100 431 -124 672 -124 270 0 473 38 820 153 l215 72 150 0 c123 0 184 -6 340
-32 268 -46 356 -54 555 -55 256 0 437 22 706 87 333 80 488 147 778 339 233
153 319 219 445 341 124 119 204 217 269 328 115 196 149 315 163 569 14 253
11 245 213 571 123 199 202 370 239 517 27 110 29 333 3 455 -115 535 -530
1014 -1081 1248 -301 128 -525 176 -856 184 -422 11 -725 -43 -1297 -228 -395
-128 -464 -129 -710 -5 -125 63 -139 81 -229 291 -91 214 -165 323 -353 522
-119 125 -125 140 -124 283 1 91 9 149 37 280 53 244 68 449 42 574 -30 150
-51 212 -110 329 -82 161 -196 300 -339 411 -81 63 -204 138 -248 151 -13 4
-82 37 -154 75 -120 61 -307 190 -458 314 -94 77 -114 166 -117 513 -3 345
-23 535 -84 810 -46 204 -109 420 -191 643 -85 236 -88 282 -32 465 41 134 57
219 88 475 69 570 161 930 324 1265 192 393 439 645 800 815 121 58 204 89
431 167 175 59 1031 325 1575 490 813 245 1122 358 1527 557 751 369 1270 799
1652 1366 383 570 524 1155 432 1787 -50 334 -146 610 -286 824 -125 189 -356
398 -568 514 -169 92 -448 189 -602 210 -27 4 -77 11 -110 15 -105 15 -388 4
-505 -20 -506 -101 -908 -384 -1319 -928 -50 -67 -175 -244 -278 -394 -315
-461 -468 -654 -689 -868 -269 -260 -567 -445 -912 -564 -74 -25 -249 -80
-390 -122 -397 -116 -558 -174 -847 -304 -280 -126 -291 -130 -343 -130 -60 0
-150 30 -197 66 -59 44 -62 74 -29 275 25 150 29 201 29 374 0 206 -5 253 -51
435 -38 152 -78 268 -181 514 -155 373 -209 542 -252 784 -39 215 -45 405 -26
737 33 550 28 960 -20 1745 -39 630 -65 843 -141 1145 -120 474 -377 997 -693
1410 -370 484 -776 779 -1191 865 -89 18 -275 21 -380 5z m435 -165 c304 -82
644 -387 977 -875 205 -299 367 -643 464 -983 87 -306 116 -477 144 -867 60
-834 74 -1466 45 -2015 -30 -565 -11 -806 90 -1155 39 -132 119 -341 191 -495
290 -625 316 -1069 88 -1509 -30 -58 -51 -108 -47 -112 5 -3 53 -23 108 -44
145 -55 248 -109 279 -146 15 -18 45 -67 66 -109 l39 -78 -80 -36 c-128 -57
-178 -52 -388 41 -188 83 -221 74 -320 -94 -56 -96 -57 -113 -12 -204 31 -62
102 -121 168 -139 84 -24 167 0 303 88 244 158 840 471 1097 576 59 25 133 56
163 69 87 39 319 114 505 163 264 70 396 111 564 175 369 141 710 380 1000
701 187 208 240 280 734 1003 401 588 768 884 1230 995 286 68 541 62 853 -20
217 -57 389 -149 533 -286 143 -134 231 -280 300 -499 214 -670 140 -1335
-215 -1925 -148 -246 -419 -580 -607 -749 -349 -313 -808 -597 -1332 -824
-299 -129 -523 -207 -1105 -383 -245 -74 -580 -177 -745 -229 -165 -52 -399
-123 -520 -160 -290 -86 -723 -236 -858 -295 -208 -92 -377 -206 -534 -361
-274 -270 -446 -583 -588 -1074 -76 -265 -86 -324 -166 -979 -12 -99 -30 -205
-40 -235 -11 -30 -19 -60 -19 -68 0 -7 -18 -29 -39 -49 -69 -62 -72 -147 -11
-289 129 -296 259 -727 309 -1025 36 -209 44 -407 34 -795 -5 -192 -7 -357 -5
-367 2 -9 53 -41 115 -72 201 -100 338 -222 407 -362 43 -88 59 -96 199 -105
215 -14 327 -64 476 -214 135 -135 190 -232 237 -417 17 -70 20 -102 15 -222
-5 -148 -16 -209 -97 -546 -23 -96 -44 -209 -47 -250 -6 -103 17 -148 110
-211 180 -124 306 -258 377 -404 54 -110 71 -180 74 -313 1 -62 6 -116 12
-121 5 -5 99 -60 209 -121 110 -62 281 -158 379 -214 109 -62 187 -100 200
-98 12 2 125 41 251 87 710 255 1077 334 1510 322 284 -8 502 -50 725 -142
237 -96 333 -158 485 -310 202 -200 335 -440 381 -682 20 -108 15 -317 -10
-408 -36 -131 -186 -407 -334 -613 -40 -57 -85 -128 -99 -159 -23 -50 -26 -67
-22 -147 7 -196 1 -319 -19 -398 -48 -180 -152 -347 -322 -519 -139 -140 -207
-192 -504 -384 l-228 -148 -192 -63 c-388 -126 -757 -180 -1076 -155 -135 11
-207 22 -545 81 -246 44 -316 40 -475 -23 -399 -157 -752 -224 -1044 -198
-135 12 -297 48 -416 94 -36 14 -105 41 -155 60 -197 77 -325 83 -584 28 -306
-66 -491 -62 -986 25 -119 20 -217 13 -485 -37 -366 -68 -697 -28 -1045 128
-74 33 -117 46 -167 50 -62 5 -73 3 -160 -35 -148 -65 -246 -98 -369 -126
-485 -108 -973 -15 -1390 266 l-115 78 -65 -34 c-173 -93 -498 -216 -724 -276
-406 -108 -895 -110 -1284 -4 -143 39 -331 109 -475 177 -109 52 -130 59 -140
47 -6 -8 -98 -132 -205 -275 -365 -489 -528 -679 -707 -825 -378 -310 -911
-480 -1501 -480 -665 0 -1284 253 -1575 644 -67 90 -124 204 -169 338 -17 51
-38 106 -46 121 l-14 28 -77 -6 c-104 -9 -343 10 -485 40 -302 62 -586 200
-787 382 -106 96 -92 93 -157 32 -300 -274 -723 -421 -1223 -423 -248 -1 -377
27 -865 189 -245 81 -257 82 -457 27 -260 -72 -368 -87 -643 -87 -182 1 -264
5 -338 18 -119 21 -155 16 -379 -47 -247 -71 -398 -91 -673 -91 -185 0 -247 4
-315 18 -159 34 -298 91 -436 178 -76 49 -91 49 -289 4 -252 -57 -378 -76
-556 -82 -258 -9 -463 26 -684 116 -162 67 -247 123 -371 246 -94 94 -116 123
-152 196 -65 131 -93 256 -94 414 0 146 9 211 57 405 49 194 81 279 308 810
57 135 121 290 142 345 20 55 74 192 119 305 46 113 141 354 211 535 70 182
161 415 202 518 159 403 171 449 183 681 9 183 26 261 77 359 63 119 151 201
301 276 55 28 78 33 195 42 226 19 510 -2 732 -53 209 -48 504 -172 623 -262
34 -26 110 -103 167 -171 l106 -123 47 15 c76 24 167 12 320 -43 73 -25 135
-44 138 -42 2 3 -5 30 -17 59 -11 30 -73 198 -136 374 -214 594 -247 727 -246
985 0 145 3 177 26 265 15 55 41 128 58 162 43 85 132 188 220 255 86 65 142
94 260 136 254 90 403 190 494 334 36 57 76 84 219 148 122 55 220 129 231
174 3 11 -3 57 -15 101 -64 253 -65 532 -4 1075 38 344 38 345 66 368 21 18
36 51 62 133 23 73 53 141 92 206 69 116 109 227 129 359 26 175 16 323 -51
689 -19 110 -42 247 -51 305 -20 145 -28 599 -14 775 23 272 79 607 142 845
66 249 121 470 144 575 25 113 26 116 270 631 80 168 82 154 -22 154 -81 0
-93 3 -134 29 -53 34 -104 88 -113 118 -9 30 18 90 56 124 51 46 211 151 348
229 132 76 199 131 231 192 25 50 24 84 -7 145 -24 50 -152 183 -175 183 -6 0
-85 -25 -176 -56 -181 -62 -246 -70 -318 -39 -79 34 -91 65 -59 157 33 100 85
135 307 213 42 15 77 32 77 36 0 19 -73 266 -100 338 -15 42 -49 121 -74 176
-62 135 -80 220 -74 349 6 124 37 222 109 344 58 98 205 399 251 512 45 112
105 308 143 465 76 309 95 588 75 1055 -30 694 -29 1034 5 1520 8 124 21 335
29 470 16 269 51 492 125 795 123 503 257 815 513 1198 117 175 214 294 363
442 257 257 405 348 629 386 89 15 336 6 435 -16 487 -108 1047 -365 1456
-669 130 -97 234 -187 390 -336 191 -184 251 -214 425 -214 107 -1 125 2 255
41 301 90 672 170 960 207 510 66 1272 66 1845 0 269 -30 753 -121 1465 -273
105 -23 210 -41 235 -41 70 1 118 29 189 111 197 227 402 405 658 573 115 75
496 281 623 336 47 21 153 69 235 108 173 81 365 145 515 172 140 26 339 22
455 -10z"/>
<path d="M8675 24770 c-93 -15 -214 -56 -282 -97 -172 -102 -482 -432 -682
-728 -104 -154 -166 -262 -246 -428 -91 -190 -133 -303 -200 -537 -115 -401
-170 -721 -207 -1210 -18 -240 -15 -843 7 -1120 22 -295 31 -808 16 -998 -25
-318 -81 -617 -172 -922 -63 -208 -136 -392 -251 -629 -49 -102 -99 -211 -109
-241 -31 -86 -41 -187 -29 -266 10 -60 153 -533 225 -743 14 -41 25 -80 25
-86 0 -11 -98 -55 -370 -166 -58 -23 -106 -43 -107 -44 -7 -4 22 -75 31 -75
41 0 266 67 390 116 l149 58 29 -34 c77 -91 154 -202 186 -269 80 -167 31
-274 -186 -408 -132 -80 -325 -205 -374 -240 -48 -34 -48 -35 -33 -64 9 -16
22 -29 30 -29 8 0 94 38 191 85 98 47 181 85 185 85 11 0 -32 -116 -132 -358
-79 -192 -200 -502 -266 -682 -48 -133 -145 -477 -187 -666 -163 -731 -163
-1503 0 -2221 50 -223 45 -281 -36 -443 -135 -269 -245 -572 -299 -817 -51
-236 -63 -334 -68 -584 -6 -264 0 -336 53 -649 18 -112 34 -209 34 -215 0 -6
-31 -19 -70 -29 -91 -23 -238 -95 -321 -157 -81 -60 -180 -163 -244 -255 -92
-132 -106 -141 -238 -155 -203 -22 -338 -80 -453 -194 -133 -132 -194 -306
-194 -557 0 -316 77 -615 299 -1156 72 -175 199 -448 205 -441 19 23 201 449
215 505 l19 74 -54 147 c-154 417 -244 708 -244 787 0 28 14 109 31 180 27
112 36 134 67 168 86 96 181 107 375 45 66 -21 140 -41 167 -44 l48 -6 72 184
c82 212 121 285 186 358 67 75 112 96 204 95 66 0 84 -4 150 -36 41 -20 113
-65 160 -99 47 -34 124 -91 172 -125 l86 -63 91 114 c141 179 247 250 371 250
204 0 414 -247 506 -595 40 -151 64 -408 89 -960 14 -318 25 -500 28 -500 1 0
101 -18 222 -40 121 -21 222 -37 225 -34 3 3 6 111 8 240 2 129 5 234 7 234 2
0 46 -19 97 -41 235 -104 582 -231 743 -273 100 -25 283 -55 405 -66 105 -9
343 4 620 34 129 14 393 109 630 227 277 138 511 303 765 539 299 278 595 443
925 515 100 22 383 31 492 16 198 -28 446 -115 634 -222 162 -93 402 -278 691
-535 106 -94 297 -237 405 -302 505 -305 1017 -384 1579 -242 168 43 275 82
434 160 240 118 425 255 603 449 239 260 351 355 533 451 321 168 686 198
1077 89 186 -53 259 -108 283 -213 11 -50 10 -69 -10 -165 l-21 -109 20 -218
c64 -695 111 -1183 115 -1210 l5 -30 256 -38 c141 -21 258 -35 261 -32 3 2
-18 78 -45 168 -71 227 -79 264 -101 439 -64 498 -45 1060 54 1609 36 201 91
346 180 480 80 121 180 180 302 180 146 0 244 -61 408 -257 l109 -130 126 127
c111 113 135 132 210 169 100 48 166 63 232 51 157 -30 243 -138 377 -477 l53
-133 292 0 291 0 59 -121 59 -120 -6 -72 c-7 -83 -34 -192 -119 -472 -33 -110
-63 -208 -65 -218 -3 -9 0 -17 6 -17 6 0 105 -41 220 -90 115 -49 213 -90 218
-90 4 0 20 48 35 108 16 59 46 172 68 252 102 365 122 602 69 800 -30 110 -74
185 -159 271 -121 123 -276 187 -533 222 -59 8 -118 22 -130 30 -12 8 -41 52
-64 98 -111 223 -308 387 -532 445 l-71 18 5 46 c3 25 17 181 30 347 63 759 3
1185 -218 1556 -119 200 -152 294 -150 432 0 78 7 109 47 235 27 86 71 265
107 439 91 446 226 962 308 1183 87 233 158 365 284 535 229 305 520 527 944
721 229 105 636 235 948 302 601 129 1254 321 1750 515 724 283 1329 658 1765
1095 313 313 506 593 638 926 57 142 87 253 119 433 25 142 27 179 28 406 0
481 -66 714 -282 992 -103 133 -241 242 -410 326 -185 93 -358 131 -593 131
-180 0 -312 -19 -467 -70 -244 -79 -537 -276 -769 -515 -126 -131 -189 -214
-338 -444 -403 -625 -517 -778 -785 -1045 -441 -440 -863 -673 -1503 -830
-295 -72 -617 -179 -863 -288 -384 -169 -840 -439 -1028 -608 -81 -73 -128
-92 -183 -74 -45 15 -297 204 -351 263 -38 41 -43 52 -43 94 0 74 15 113 72
190 181 241 218 251 497 130 146 -64 146 -64 224 -59 76 4 78 5 75 29 -3 22
-26 35 -203 112 -314 138 -318 140 -312 153 2 7 45 137 95 288 106 322 134
444 133 585 0 130 -24 222 -94 361 -191 381 -336 811 -407 1204 -60 337 -67
514 -50 1291 19 847 18 1393 -3 1591 -70 644 -254 1199 -576 1732 -129 214
-296 422 -515 642 -185 186 -301 250 -507 281 -94 14 -126 15 -217 5 -343 -38
-869 -232 -1252 -462 -231 -139 -430 -294 -645 -505 -255 -250 -371 -304 -628
-292 -104 4 -156 14 -347 61 -528 132 -1105 223 -1625 256 -206 13 -700 13
-897 0 -584 -39 -1129 -139 -1665 -306 -246 -76 -213 -91 -638 287 -357 317
-504 427 -766 574 -276 154 -684 307 -970 365 -121 24 -271 32 -354 20z m357
-404 c40 -8 174 -52 298 -99 124 -46 306 -112 405 -147 649 -224 1256 -669
1833 -1343 129 -149 136 -156 154 -140 10 9 18 20 18 25 0 5 -61 97 -135 205
-75 107 -134 198 -131 200 11 12 570 162 577 156 7 -8 30 -100 204 -816 56
-230 105 -407 120 -436 38 -76 83 -105 169 -109 87 -5 140 8 193 47 62 45 88
109 118 291 32 190 102 576 156 850 39 200 53 239 104 305 15 20 17 19 51 -20
19 -22 41 -53 48 -70 17 -37 112 -450 210 -912 41 -193 85 -372 97 -397 39
-83 115 -126 222 -126 98 0 178 52 215 139 11 25 48 197 82 381 141 766 172
894 235 974 15 19 16 19 46 -10 17 -16 39 -43 50 -60 20 -33 69 -299 168 -907
57 -351 71 -393 148 -435 52 -29 159 -39 223 -22 59 16 122 81 143 146 9 27
64 293 123 590 58 298 109 546 113 552 4 8 93 -11 273 -56 147 -38 270 -70
273 -73 2 -3 -33 -68 -79 -145 -84 -138 -85 -139 -64 -156 19 -17 23 -15 124
81 58 54 175 171 261 260 363 378 725 648 1168 871 166 84 226 108 475 190
494 161 710 223 782 222 94 -2 222 -79 379 -230 185 -177 311 -350 414 -567
139 -290 175 -451 392 -1740 13 -80 13 -178 2 -875 -21 -1189 -17 -1342 46
-1716 53 -314 173 -692 300 -943 19 -39 35 -72 35 -75 0 -2 -44 14 -97 36
-612 246 -1459 399 -1871 338 -101 -15 -148 -37 -199 -93 -67 -73 -69 -126 -8
-209 38 -52 122 -112 620 -447 220 -148 431 -302 678 -494 l357 -278 -17 -30
c-9 -16 -20 -29 -24 -29 -4 0 -139 18 -301 40 l-293 40 -1372 0 -1373 0 -5 23
c-2 12 -14 76 -26 142 -11 66 -22 121 -23 123 -2 1 -10 -24 -19 -56 -30 -110
-102 -184 -211 -218 -37 -11 -125 -18 -326 -24 -440 -14 -560 -31 -647 -87
l-23 -15 29 -42 c16 -22 37 -48 47 -57 18 -15 275 -123 487 -203 53 -21 97
-42 97 -46 0 -21 -132 -117 -216 -156 -140 -67 -239 -88 -424 -88 -112 0 -178
4 -240 17 -323 68 -570 224 -714 449 -66 104 -66 100 27 138 228 92 380 218
461 385 50 101 68 183 64 286 -3 75 -7 92 -33 135 -39 62 -113 108 -198 123
-91 16 -720 24 -958 13 -193 -9 -210 -11 -268 -37 -111 -50 -155 -122 -154
-255 1 -271 190 -510 505 -639 75 -31 92 -42 90 -57 -2 -11 -21 -56 -44 -101
-67 -139 -199 -264 -363 -346 -290 -145 -682 -155 -990 -25 -78 33 -245 133
-245 147 0 4 66 32 148 63 349 134 414 165 483 227 l64 59 -76 37 c-68 32 -93
38 -214 51 -192 20 -479 34 -546 27 -62 -6 -177 10 -219 32 -62 32 -106 97
-130 192 -11 42 -53 103 -64 92 -5 -5 -46 -264 -46 -290 0 -5 -477 -9 -1262
-9 l-1263 -1 -430 -38 c-236 -21 -432 -36 -434 -35 -2 2 11 16 30 31 18 15
183 157 367 315 344 295 445 371 957 713 219 146 270 190 285 246 27 101 -45
228 -147 260 -57 17 -345 23 -480 10 -434 -44 -952 -167 -1418 -338 -82 -30
-158 -57 -167 -60 -17 -5 -17 -2 -2 48 9 30 53 146 99 259 143 353 206 538
244 713 39 181 44 328 35 1017 -11 846 -10 1377 5 1580 36 500 106 907 218
1270 106 346 253 638 455 908 227 304 429 408 690 358z m17763 -5240 c165 -75
297 -238 365 -451 19 -58 24 -100 28 -238 12 -433 -82 -789 -288 -1099 -34
-51 -75 -106 -90 -123 -15 -16 -50 -64 -78 -105 -154 -230 -414 -446 -828
-686 -55 -31 -157 -91 -229 -132 -226 -130 -515 -259 -856 -380 -300 -108
-520 -173 -1194 -357 -154 -42 -395 -113 -535 -157 -140 -44 -284 -89 -320
-100 -104 -32 -637 -225 -730 -264 -266 -112 -534 -325 -794 -629 -61 -71
-138 -159 -172 -194 l-61 -65 -63 255 c-34 140 -74 288 -87 329 -49 151 -40
281 29 398 42 72 233 263 368 368 460 358 994 598 1886 848 401 112 671 227
946 403 371 238 620 477 946 908 202 267 188 247 419 580 102 149 218 315 256
370 162 233 290 353 476 448 158 81 258 105 426 103 107 -2 127 -5 180 -30z
m-12611 -1346 c54 -26 130 -106 156 -163 38 -82 14 -178 -55 -231 -34 -26 -85
-50 -92 -43 -2 2 11 35 29 73 27 58 33 81 33 141 0 66 -2 74 -29 102 -42 44
-102 60 -271 71 -178 12 -346 29 -383 40 -22 6 -15 8 38 14 161 18 284 24 403
21 105 -3 136 -7 171 -25z m-3104 -806 c0 -13 -2 -24 -3 -24 -7 0 -769 -119
-1182 -184 -225 -35 -518 -81 -650 -101 -209 -32 -321 -58 -870 -197 -346 -89
-642 -163 -656 -165 -24 -4 -39 9 -140 132 -63 76 -114 144 -114 151 0 17 100
132 155 177 96 79 131 87 465 113 116 8 307 26 425 40 177 19 339 27 910 44
1128 33 1645 46 1653 42 4 -2 7 -14 7 -28z m7275 -8 c298 -21 962 -83 1080
-101 187 -28 241 -43 293 -85 62 -49 106 -104 138 -175 31 -66 29 -126 -4
-172 -47 -66 -188 -111 -295 -93 -29 4 -120 26 -202 48 -278 75 -860 225 -905
233 -25 5 -225 36 -445 68 -1393 208 -1595 240 -1595 253 0 4 12 8 27 8 15 0
88 5 162 11 410 31 1337 34 1746 5z m-1626 -227 c1270 -215 1614 -277 1921
-343 826 -179 955 -207 959 -211 2 -3 -18 -24 -45 -48 -125 -113 -262 -230
-296 -253 -70 -49 -89 -44 -538 129 -223 86 -438 169 -477 186 -40 16 -247 79
-460 140 -717 203 -1308 369 -1375 387 -38 10 -68 24 -68 30 0 16 11 44 17 44
3 0 166 -27 362 -61z m-5671 16 c-2 -3 -126 -40 -274 -84 -148 -43 -447 -132
-664 -196 -217 -64 -505 -150 -640 -190 -135 -39 -344 -111 -465 -158 -505
-196 -735 -277 -792 -277 -57 0 -108 17 -151 50 -76 59 -300 266 -294 272 4 3
72 20 152 38 80 17 375 82 655 145 397 89 629 134 1045 204 1036 175 1177 195
1369 200 35 0 62 -1 59 -4z m5442 -209 c234 -70 558 -167 720 -216 162 -48
394 -118 515 -154 121 -36 364 -115 540 -177 176 -61 416 -144 534 -185 117
-41 220 -78 227 -82 9 -5 -95 -77 -302 -210 l-315 -202 -407 244 c-271 162
-522 303 -752 421 -190 98 -541 279 -780 402 -239 123 -439 228 -443 232 -12
12 11 64 26 58 6 -2 203 -62 437 -131z m-5120 76 c0 -5 -177 -100 -392 -212
-216 -112 -566 -293 -778 -403 -257 -133 -524 -282 -802 -448 -229 -137 -421
-249 -426 -249 -9 0 -651 376 -665 389 -10 10 -24 4 523 197 601 211 596 209
1000 323 195 56 546 155 780 221 234 66 493 139 575 163 141 41 185 46 185 19z
m4719 -206 c75 -41 204 -110 286 -154 83 -44 272 -145 420 -224 149 -80 344
-184 435 -233 91 -48 307 -166 480 -262 173 -96 368 -204 433 -240 65 -36 115
-68 112 -72 -4 -3 -124 -58 -267 -121 -144 -64 -263 -120 -265 -125 -1 -6 1
-16 6 -23 6 -11 41 -5 172 28 90 23 205 58 254 78 124 49 211 55 290 18 31
-14 131 -85 223 -159 92 -73 235 -184 317 -247 83 -63 213 -173 291 -245 77
-72 156 -143 175 -157 31 -23 136 -65 143 -57 2 2 0 32 -4 67 -15 119 -112
214 -615 605 -220 170 -402 312 -404 314 -8 6 7 14 365 189 345 168 361 175
407 170 36 -4 97 -30 225 -97 310 -160 481 -259 502 -289 26 -37 74 -169 156
-433 190 -612 285 -1141 300 -1677 22 -750 -153 -1498 -497 -2129 -195 -357
-397 -629 -776 -1044 -248 -272 -688 -503 -1127 -592 -119 -24 -353 -52 -362
-43 -2 3 52 96 121 208 69 112 125 206 125 209 0 3 -4 12 -9 20 -7 11 -54 -15
-223 -124 -356 -231 -399 -257 -454 -276 -65 -23 -117 -24 -175 -4 -48 17
-199 114 -199 128 0 5 22 35 48 66 71 83 407 494 416 509 4 7 3 19 -4 27 -9
11 -73 -18 -352 -157 -265 -133 -342 -167 -349 -157 -32 51 -22 195 19 281 54
115 137 212 626 726 196 206 251 269 292 340 355 609 495 881 573 1116 98 294
126 483 118 790 -6 253 -38 433 -119 678 -63 192 -152 348 -199 348 -5 0 -9
-90 -9 -214 l0 -215 -62 18 c-35 10 -106 41 -158 69 -183 98 -346 148 -568
176 -106 14 -303 16 -1358 16 l-1234 0 -1 23 c0 12 -15 176 -32 365 -18 189
-30 345 -26 347 13 9 781 95 842 95 10 0 45 26 78 57 56 53 62 63 91 157 29
90 32 114 32 221 0 224 -62 348 -208 416 -201 94 -599 42 -907 -117 -143 -75
-252 -159 -390 -302 -144 -149 -169 -163 -312 -173 -334 -25 -551 -108 -700
-269 -76 -82 -116 -155 -153 -275 -25 -84 -27 -103 -28 -275 -1 -102 2 -204 7
-228 l7 -43 -1277 1 c-1352 2 -1369 1 -1620 -45 -181 -34 -378 -106 -543 -199
-46 -26 -85 -44 -88 -42 -3 3 -25 106 -49 228 -24 123 -46 230 -49 238 -7 19
-38 -56 -110 -265 -309 -893 -222 -1673 271 -2430 98 -151 174 -243 468 -569
448 -495 579 -650 621 -733 30 -59 48 -163 42 -237 -3 -38 -9 -73 -14 -78 -5
-5 -36 7 -73 28 -35 20 -104 56 -154 82 -49 25 -148 78 -220 117 -242 133
-223 125 -236 109 -14 -17 -22 -5 121 -174 352 -416 364 -431 353 -448 -15
-25 -102 -89 -153 -113 -65 -31 -143 -35 -212 -11 -31 11 -132 66 -225 122
-92 56 -205 120 -250 141 -80 39 -185 80 -191 75 -1 -2 39 -85 89 -185 51 -99
90 -184 87 -187 -4 -3 -59 2 -125 11 -544 75 -958 261 -1276 574 -70 69 -140
136 -156 148 -38 30 -251 298 -366 463 -281 402 -488 832 -620 1289 -98 340
-149 652 -164 1006 -28 633 67 1240 317 2030 81 257 97 297 138 352 28 37 218
149 526 309 186 98 224 114 264 114 40 0 92 -23 393 -176 190 -97 350 -179
354 -183 4 -4 -50 -53 -120 -107 -70 -55 -244 -191 -387 -302 -185 -145 -285
-231 -354 -304 -119 -128 -132 -149 -132 -216 l0 -53 38 7 c66 12 104 39 247
176 130 125 411 351 735 592 l135 101 65 0 c54 0 103 -12 278 -70 180 -59 215
-67 222 -55 5 8 8 19 7 24 -2 5 -94 57 -206 116 -111 59 -202 111 -201 116 1
12 497 285 1195 659 389 208 615 329 835 448 118 63 232 123 252 133 l36 17
89 -70 c133 -106 231 -168 366 -233 187 -90 388 -140 566 -140 57 0 81 -5 108
-21 35 -22 110 -104 251 -276 137 -168 265 -279 397 -345 234 -118 494 -143
740 -73 279 80 498 253 663 527 28 46 68 100 89 120 62 60 98 70 278 79 213 9
322 36 486 119 92 46 180 104 253 164 48 40 207 155 215 156 2 0 65 -33 140
-74z m-2899 -277 c69 -184 276 -309 511 -309 150 0 269 53 369 164 74 82 159
166 168 166 4 0 19 -18 31 -40 l23 -41 -34 -57 c-18 -31 -73 -98 -123 -148
-73 -74 -104 -98 -165 -126 -255 -120 -537 -73 -730 121 -103 104 -162 197
-158 248 3 32 8 41 38 55 19 10 39 17 44 15 4 -1 16 -23 26 -48z m6628 -437
c34 -103 62 -190 62 -194 0 -6 -118 46 -344 150 l-59 27 134 102 c74 56 136
102 139 102 3 1 33 -83 68 -187z m-12073 81 c80 -53 145 -99 145 -102 0 -9
-476 -261 -493 -261 -8 0 -20 6 -26 14 -10 12 3 44 69 168 118 221 150 278
156 278 2 0 69 -43 149 -97z m7503 -525 c50 -40 51 -43 59 -132 7 -84 -3 -110
-65 -169 l-39 -39 -174 -3 c-270 -5 -450 -39 -635 -118 l-81 -35 -42 19 -42
18 152 138 c195 178 209 188 304 233 94 45 200 74 368 99 160 25 149 26 195
-11z m-1153 -797 c122 -55 191 -187 183 -347 -6 -110 -54 -211 -142 -300 -106
-106 -221 -149 -375 -142 -146 8 -227 56 -260 156 -22 65 -26 258 -7 332 49
191 240 317 486 319 52 0 87 -5 115 -18z m2040 -1130 l980 -7 95 -26 c101 -28
346 -123 410 -159 43 -24 77 -67 139 -178 l42 -75 10 -210 c6 -116 8 -239 4
-273 -10 -98 5 -87 -595 -423 -280 -157 -423 -243 -605 -363 -186 -123 -363
-200 -555 -242 -119 -26 -357 -31 -481 -10 -344 57 -674 242 -1018 568 -163
155 -223 207 -352 305 -353 267 -761 429 -1189 473 -139 14 -433 6 -573 -16
-358 -56 -655 -164 -906 -328 -133 -87 -211 -155 -376 -321 -203 -206 -369
-323 -650 -457 -133 -64 -439 -185 -491 -195 -56 -10 -100 19 -133 90 -16 33
-30 66 -32 71 -2 6 -39 63 -82 127 -98 146 -204 354 -244 478 -53 161 -66 240
-66 405 -1 136 2 157 25 221 45 127 136 243 266 341 159 120 330 190 496 202
126 10 4558 11 5881 2z m-3056 -1136 c126 -28 251 -73 386 -140 211 -103 356
-206 690 -490 349 -297 503 -403 768 -530 224 -107 435 -164 700 -187 223 -20
520 18 769 98 192 62 306 122 618 324 246 159 308 197 343 205 32 9 32 9 6
-52 -64 -150 -231 -345 -474 -553 -60 -52 -136 -118 -168 -147 -32 -29 -64
-53 -70 -53 -7 -1 -45 -45 -84 -98 -106 -142 -180 -224 -222 -247 -36 -20 -55
-20 -2646 -20 l-2610 0 -72 38 c-88 48 -164 115 -271 243 -63 76 -116 125
-232 214 -82 63 -149 117 -150 120 0 10 164 89 260 126 261 100 474 242 826
549 429 375 740 548 1094 611 106 18 440 12 539 -11z m-6059 -1916 c195 -303
364 -566 374 -583 l20 -33 -44 -109 c-60 -149 -127 -295 -148 -317 -24 -27
-82 -55 -139 -67 -97 -22 -428 -69 -434 -62 -14 15 -62 161 -94 287 -86 336
-86 725 0 1095 23 97 97 340 104 340 3 0 166 -248 361 -551z m13609 296 c131
-471 123 -888 -24 -1344 -20 -62 -42 -114 -49 -117 -6 -2 -151 14 -320 36
-170 22 -315 40 -322 40 -7 0 -22 30 -35 68 -12 37 -39 106 -60 153 -45 101
-49 146 -16 204 13 22 86 123 164 225 176 232 530 721 579 801 21 33 41 56 45
52 4 -4 21 -57 38 -118z m-9472 -857 c-3 -8 -6 -5 -6 6 -1 11 2 17 5 13 3 -3
4 -12 1 -19z m4575 -270 c80 -37 135 -92 232 -232 174 -248 289 -371 456 -485
268 -184 585 -276 1035 -301 183 -10 350 -30 338 -40 -4 -3 -28 -13 -53 -21
-79 -24 -331 -155 -440 -227 -162 -108 -298 -222 -522 -439 -278 -270 -391
-353 -598 -441 -325 -139 -659 -135 -1023 9 -274 109 -464 239 -767 524 -69
65 -156 144 -195 175 -371 303 -755 476 -1210 547 -155 24 -498 24 -655 0
-129 -20 -337 -72 -450 -113 -267 -95 -535 -263 -818 -509 -238 -207 -571
-439 -792 -552 -113 -58 -300 -117 -435 -138 -142 -22 -376 -16 -514 14 -129
28 -312 84 -440 136 -171 69 -472 206 -531 243 -158 98 -236 226 -280 463 -27
143 -86 319 -190 569 -80 191 -118 310 -99 310 6 0 63 -29 127 -64 543 -295
973 -425 1511 -456 493 -28 1144 88 1444 256 223 126 427 347 554 599 66 131
103 169 193 199 8 2 926 4 2040 3 l2025 -2 57 -27z m3625 -350 c-3 -7 -5 -2
-5 12 0 14 2 19 5 13 2 -7 2 -19 0 -25z m10 -90 c-3 -8 -6 -5 -6 6 -1 11 2 17
5 13 3 -3 4 -12 1 -19z m-79 -383 c-50 -154 -92 -281 -93 -282 -1 -3 -120 13
-715 92 -288 39 -282 31 -66 86 369 94 612 184 821 301 55 31 109 63 120 72
11 8 21 13 22 12 1 -1 -39 -127 -89 -281z m-931 179 c-3 -3 -12 -4 -19 -1 -8
3 -5 6 6 6 11 1 17 -2 13 -5z m-50 -10 c-3 -3 -12 -4 -19 -1 -8 3 -5 6 6 6 11
1 17 -2 13 -5z m-50 -10 c-3 -3 -12 -4 -19 -1 -8 3 -5 6 6 6 11 1 17 -2 13 -5z
m-1040 -20 c-3 -3 -12 -4 -19 -1 -8 3 -5 6 6 6 11 1 17 -2 13 -5z"/>
<path d="M9084 23700 c-124 -26 -212 -110 -302 -287 -287 -565 -443 -1175
-446 -1743 -1 -156 2 -192 17 -230 41 -102 107 -164 207 -194 115 -34 239 -16
485 73 261 93 869 303 1235 425 201 68 385 133 409 146 64 32 147 115 177 175
86 177 8 368 -318 779 -197 248 -442 474 -692 638 -103 67 -139 84 -258 123
-281 92 -414 117 -514 95z m347 -550 c311 -129 585 -369 783 -689 56 -91 110
-191 104 -196 -2 -1 -100 -28 -218 -60 -455 -121 -395 -101 -923 -312 -159
-63 -291 -113 -294 -109 -8 8 35 381 63 541 45 256 121 513 210 704 43 93 48
99 97 124 67 34 89 33 178 -3z"/>
<path d="M18200 23703 c-67 -11 -370 -98 -405 -115 -75 -39 -287 -178 -408
-270 -141 -107 -415 -375 -504 -493 -162 -215 -295 -458 -312 -570 -17 -112
12 -199 94 -280 72 -72 123 -96 417 -191 483 -158 1153 -401 1318 -479 170
-81 243 -101 335 -91 186 19 346 131 387 269 15 51 15 290 -1 432 -30 272 -95
554 -201 880 -70 214 -204 555 -258 659 -40 76 -117 166 -173 201 -71 46 -189
65 -289 48z m12 -545 c36 -25 55 -48 79 -98 132 -270 215 -599 279 -1114 12
-92 20 -170 18 -171 -2 -2 -96 35 -208 81 -436 182 -518 211 -875 309 -192 53
-353 100 -357 104 -5 4 15 47 43 96 224 392 522 665 874 801 79 30 91 30 147
-8z"/>
<path d="M15632 22711 c-10 -6 -10 -10 3 -21 18 -15 42 0 31 19 -8 13 -16 14
-34 2z"/>
<path d="M16022 20539 c-376 -49 -705 -321 -863 -714 -150 -375 -138 -826 30
-1181 151 -318 406 -544 706 -626 114 -31 365 -31 477 0 327 90 609 319 760
616 53 106 102 258 123 385 34 203 8 514 -60 716 -62 187 -148 320 -305 476
-111 110 -195 173 -306 228 -181 90 -375 125 -562 100z m211 -1440 c127 -26
240 -123 273 -236 23 -80 16 -202 -16 -266 -72 -144 -240 -226 -410 -200 -138
22 -265 105 -326 215 -26 47 -29 63 -29 138 0 75 3 91 29 138 89 159 291 248
479 211z"/>
<path d="M11110 20534 c-231 -44 -430 -146 -582 -298 -138 -138 -227 -294
-306 -536 -62 -190 -122 -387 -122 -398 0 -6 10 -12 23 -14 21 -3 22 -8 29
-133 10 -218 66 -420 163 -589 223 -391 638 -614 1056 -568 428 48 761 338
914 796 108 321 98 720 -24 1024 -112 280 -325 517 -565 627 -146 68 -234 87
-406 91 -85 1 -166 0 -180 -2z m273 -1454 c103 -38 178 -113 212 -210 23 -65
15 -214 -14 -270 -58 -111 -145 -176 -269 -200 -136 -27 -263 10 -358 105 -83
82 -108 146 -102 265 4 66 10 96 30 135 30 59 113 139 166 162 108 47 232 51
335 13z"/>
<path d="M6135 7145 c-120 -22 -228 -61 -343 -121 -301 -158 -523 -363 -631
-581 -82 -165 -109 -391 -75 -618 6 -40 4 -42 -78 -129 l-84 -89 -204 71
c-113 39 -272 96 -355 126 l-149 54 -1 199 c-1 180 -3 204 -24 268 -61 183
-157 293 -332 381 -97 49 -450 164 -619 202 -292 66 -556 88 -693 58 -162 -36
-284 -130 -351 -268 -45 -94 -62 -170 -76 -338 -13 -162 -32 -274 -67 -384
-57 -184 -620 -1636 -793 -2046 -201 -477 -321 -798 -356 -947 -22 -94 -19
-241 6 -338 95 -370 438 -654 896 -741 106 -20 322 -22 439 -5 44 7 166 34
270 61 105 26 226 51 271 55 137 12 256 -26 357 -115 42 -37 62 -46 157 -71
173 -45 322 -62 490 -56 232 8 395 38 795 149 79 22 139 20 255 -8 106 -26
436 -26 565 -1 124 25 325 78 479 127 128 41 128 41 150 22 31 -29 151 -104
222 -140 93 -47 247 -97 379 -123 106 -21 148 -24 350 -24 249 0 357 12 550
62 277 71 563 220 738 383 41 38 78 70 82 70 4 0 56 -46 114 -103 215 -207
462 -339 745 -397 165 -34 321 -44 480 -31 77 7 143 8 148 3 5 -5 38 -80 74
-168 81 -199 128 -285 209 -389 218 -280 518 -451 934 -535 309 -62 678 -76
936 -36 473 75 848 259 1188 585 162 156 234 246 497 626 146 211 292 419 300
428 4 4 70 -27 148 -71 238 -133 444 -210 721 -269 119 -26 140 -27 396 -27
252 0 279 2 407 27 299 59 551 146 871 300 l187 90 28 -26 c48 -45 247 -173
344 -220 189 -92 393 -149 600 -169 321 -30 679 57 981 239 l57 35 78 -50
c144 -92 288 -154 470 -200 101 -25 120 -27 327 -27 203 1 230 3 345 28 301
67 387 72 552 32 146 -35 315 -62 438 -70 187 -12 333 11 645 101 131 38 268
39 345 3 30 -14 78 -47 107 -73 55 -50 93 -66 218 -96 455 -109 920 -60 1345
141 173 83 201 83 675 9 345 -54 434 -63 630 -62 253 0 475 33 725 109 434
131 824 410 1090 782 153 213 208 416 166 615 -35 169 -18 224 109 358 97 102
145 169 202 283 75 149 126 322 153 522 19 141 -13 276 -112 471 -188 372
-405 568 -759 686 -206 68 -418 96 -738 96 -227 0 -395 -16 -595 -56 -146 -29
-387 -99 -521 -151 -118 -46 -389 -177 -488 -236 -43 -26 -81 -47 -84 -47 -3
0 -60 53 -127 118 -67 64 -157 141 -199 170 -163 112 -336 172 -501 172 -87 0
-88 0 -82 23 80 275 24 522 -166 722 -237 251 -613 383 -1208 426 -200 15
-274 6 -379 -47 -94 -47 -163 -119 -213 -222 -45 -94 -112 -349 -209 -799 -29
-139 -58 -253 -64 -253 -6 0 -126 31 -268 70 -323 87 -470 113 -642 113 -142
1 -239 -12 -357 -50 -64 -20 -85 -22 -115 -14 -21 6 -171 15 -333 20 -577 20
-737 -9 -1350 -249 -330 -129 -287 -124 -405 -45 -242 162 -476 258 -768 317
-98 20 -143 23 -357 23 -266 0 -350 -9 -590 -66 -273 -64 -496 -142 -853 -295
l-197 -86 -68 45 c-79 53 -227 129 -319 163 -255 96 -824 164 -998 119 -141
-37 -240 -113 -310 -240 -21 -38 -40 -72 -42 -74 -1 -2 -35 23 -75 56 -199
164 -381 253 -618 304 -209 45 -542 27 -789 -41 -39 -11 -72 -20 -75 -20 -2 0
-7 33 -10 73 -22 222 -117 408 -269 523 -75 57 -309 172 -432 212 -104 35
-277 74 -420 97 -137 22 -475 31 -557 16 -156 -30 -279 -125 -343 -264 -41
-88 -59 -175 -80 -377 -27 -268 -36 -298 -89 -333 -18 -12 -211 -77 -228 -77
-7 0 -94 122 -110 155 -9 17 -21 62 -27 100 -46 286 -103 370 -315 470 -329
155 -506 222 -793 299 -316 85 -434 139 -583 268 -113 98 -165 133 -283 188
-146 68 -254 92 -447 96 -117 2 -188 -1 -245 -11z m414 -487 c160 -49 297
-153 348 -265 22 -47 28 -76 31 -153 4 -83 1 -105 -21 -169 -14 -40 -41 -98
-59 -129 -133 -225 -462 -409 -693 -387 -266 24 -431 117 -515 289 -45 91 -53
209 -22 313 37 120 137 263 247 352 197 160 461 218 684 149z m-3604 -159
c392 -40 651 -147 733 -303 25 -46 27 -60 26 -151 -3 -189 -69 -559 -139 -775
-51 -158 -140 -363 -244 -565 -49 -93 -100 -204 -115 -245 -15 -41 -34 -90
-41 -107 -8 -18 -12 -33 -10 -33 13 0 176 87 249 132 223 140 392 301 698 668
135 163 185 200 264 200 62 0 119 -36 217 -139 117 -122 223 -295 273 -441 24
-73 24 -206 0 -275 -41 -113 -145 -236 -273 -322 -70 -46 -450 -222 -583 -270
-197 -70 -290 -105 -290 -109 0 -18 80 -204 125 -292 127 -247 334 -450 569
-557 42 -19 79 -35 82 -35 2 0 4 15 4 33 0 73 54 311 101 444 39 110 123 299
250 563 128 268 226 509 471 1165 l105 280 79 0 c180 0 392 -30 528 -76 99
-33 176 -76 262 -146 l56 -46 52 12 c28 7 103 23 166 37 174 37 380 94 430
119 96 49 99 57 210 628 56 284 64 317 81 317 45 0 795 -197 840 -220 54 -28
91 -64 116 -113 34 -66 35 -129 6 -372 -12 -99 -25 -208 -28 -243 l-6 -63 88
7 c85 6 194 -4 291 -28 l42 -10 0 -72 c-1 -176 -32 -267 -121 -352 -98 -92
-231 -134 -423 -134 -73 0 -107 -4 -113 -12 -8 -15 -119 -250 -163 -348 -16
-36 -66 -146 -111 -245 -45 -99 -104 -229 -130 -290 -26 -60 -68 -156 -93
-213 -72 -160 -98 -259 -100 -377 -1 -105 14 -155 61 -197 92 -83 310 -88 522
-12 53 19 102 34 110 34 10 0 12 -12 6 -56 -19 -151 -67 -248 -175 -354 -94
-91 -216 -160 -380 -214 -229 -75 -354 -99 -510 -99 -193 0 -349 39 -547 135
-135 65 -255 212 -305 370 -45 148 -41 332 12 491 42 125 157 390 249 575 43
86 90 184 104 217 14 33 86 184 160 335 110 223 132 277 120 283 -8 5 -89 7
-181 5 -152 -3 -171 -5 -215 -27 -59 -29 -104 -92 -148 -206 -17 -44 -75 -183
-129 -310 -277 -649 -396 -964 -425 -1119 -8 -44 -24 -178 -36 -296 -13 -132
-25 -218 -32 -222 -7 -4 -49 -21 -93 -37 -134 -49 -223 -64 -384 -64 -167 0
-259 16 -391 69 -48 19 -91 34 -97 34 -6 0 -84 -22 -174 -49 -201 -61 -475
-134 -588 -158 -131 -27 -333 -25 -430 5 -186 58 -341 193 -433 377 -59 119
-209 581 -238 733 -10 55 -14 62 -35 62 -13 0 -25 -7 -28 -17 -4 -15 -85 -439
-164 -868 l-17 -90 -45 -22 c-119 -58 -359 -89 -565 -73 -157 13 -199 23 -291
66 -104 49 -166 109 -214 207 -77 158 -75 272 10 521 51 148 84 226 275 651
64 143 147 330 185 415 95 220 218 495 317 710 165 359 280 666 334 890 24
100 119 651 119 692 0 10 53 7 255 -13z m18825 11 c63 -6 142 -13 175 -16 170
-15 379 -76 508 -147 89 -50 118 -76 150 -135 46 -85 45 -109 -23 -402 -33
-146 -70 -305 -80 -355 -30 -138 -127 -486 -172 -620 -22 -66 -78 -205 -124
-309 -46 -105 -82 -192 -80 -194 15 -14 110 51 216 149 379 345 669 617 781
731 69 70 133 128 141 128 23 0 170 -91 244 -151 106 -87 201 -223 251 -360
24 -67 27 -88 27 -215 l1 -140 31 18 c18 10 69 59 114 109 46 50 140 138 209
196 368 308 738 474 1221 549 161 26 592 26 730 1 210 -38 400 -122 511 -225
153 -142 219 -291 219 -498 0 -322 -198 -593 -613 -840 -134 -80 -225 -123
-372 -175 -311 -110 -606 -169 -1005 -199 -80 -6 -146 -13 -148 -15 -10 -10
48 -97 97 -145 66 -66 158 -114 264 -137 97 -20 332 -12 472 17 202 42 393
117 544 214 37 24 78 47 91 51 35 11 204 34 213 28 10 -6 9 -182 -2 -221 -24
-83 -281 -366 -441 -486 -187 -140 -356 -220 -595 -281 -336 -86 -679 -96
-1012 -30 -216 44 -348 96 -557 220 -64 38 -81 44 -87 32 -45 -79 -146 -179
-247 -244 -168 -108 -446 -172 -762 -175 -121 -1 -158 2 -222 20 -103 29 -174
64 -244 120 -111 90 -188 204 -264 391 -48 118 -64 169 -155 486 -25 88 -48
167 -51 175 -8 20 -74 -159 -123 -330 -62 -216 -68 -274 -58 -575 l2 -49 -76
-32 c-224 -94 -548 -116 -781 -53 -137 37 -252 129 -310 247 -27 55 -32 76
-36 165 -4 94 -2 112 33 237 85 309 264 768 425 1095 241 487 431 904 535
1175 44 117 128 390 164 535 29 116 94 473 106 585 8 76 14 90 33 90 9 0 69
-5 132 -10z m-11495 -406 c88 -25 224 -65 301 -89 129 -41 145 -49 179 -86 49
-55 76 -119 82 -194 6 -66 -9 -245 -34 -423 -8 -62 -13 -116 -9 -119 5 -5 222
8 384 23 l62 6 26 -56 c90 -198 8 -417 -189 -506 -98 -44 -151 -53 -244 -41
-193 24 -342 -49 -422 -208 -10 -20 -35 -83 -56 -141 -49 -137 -185 -483 -291
-738 -46 -112 -89 -222 -94 -245 -5 -23 -10 -86 -10 -139 0 -195 70 -284 232
-296 87 -6 164 10 313 63 65 24 121 42 123 40 8 -7 -50 -211 -75 -263 -30 -63
-120 -163 -207 -229 -117 -89 -318 -172 -516 -214 -138 -29 -384 -32 -505 -5
-313 69 -531 263 -595 527 -24 102 -26 231 -4 336 29 141 167 495 361 923 44
96 85 191 93 210 7 19 48 110 91 201 43 91 79 172 81 180 2 11 -27 15 -162 19
l-165 5 -14 70 c-26 134 9 259 100 359 79 87 187 134 358 156 159 21 207 68
236 229 63 344 137 738 140 748 4 12 96 -10 430 -103z m9690 -684 c6 -4 19 -7
30 -7 26 -2 501 -126 630 -165 161 -49 195 -73 234 -158 39 -86 24 -195 -69
-510 -11 -36 -22 -83 -25 -105 -10 -60 -111 -355 -166 -482 -27 -61 -49 -115
-49 -119 0 -8 -54 -130 -122 -272 -55 -118 -97 -217 -102 -247 -2 -11 -23 -71
-46 -132 -104 -283 -129 -492 -80 -664 19 -64 14 -76 -37 -99 -83 -37 -274
-91 -378 -107 -133 -20 -354 -13 -440 15 -155 49 -278 146 -343 268 -29 56
-79 230 -84 296 -2 25 -7 21 -73 -49 -174 -186 -363 -328 -560 -423 -141 -69
-212 -91 -340 -110 -310 -44 -657 61 -831 253 -59 65 -127 163 -127 183 0 8
-5 14 -10 14 -6 0 -8 3 -5 6 3 3 -25 70 -63 149 -38 79 -69 149 -69 155 0 7
-28 -26 -61 -72 -80 -108 -253 -279 -354 -350 -91 -63 -281 -171 -301 -171 -8
0 -14 -4 -14 -9 0 -5 -4 -6 -10 -3 -5 3 -10 1 -10 -5 0 -6 -4 -9 -10 -5 -5 3
-36 -5 -68 -19 -79 -33 -262 -81 -397 -103 -156 -26 -608 -26 -742 -1 -113 22
-269 71 -344 109 -31 15 -59 25 -63 22 -3 -4 -6 0 -6 7 0 7 -3 11 -6 7 -8 -8
-79 37 -134 86 -96 85 -177 168 -191 194 -8 16 -16 30 -19 33 -6 6 -34 58 -70
130 -35 69 -79 212 -87 282 -3 29 -9 59 -12 66 -4 7 -73 -117 -160 -285 -214
-418 -324 -624 -387 -726 -30 -48 -54 -91 -54 -95 0 -11 -90 -146 -176 -262
-137 -187 -284 -346 -434 -471 -125 -105 -398 -277 -414 -262 -3 4 -6 0 -6 -7
0 -7 -3 -11 -6 -7 -4 3 -23 -2 -43 -13 -63 -32 -239 -89 -339 -110 -140 -30
-373 -37 -527 -16 -126 17 -288 60 -390 103 -33 14 -68 26 -77 26 -10 1 -18 6
-18 11 0 5 -3 7 -6 4 -9 -10 -275 136 -282 154 -2 4 -8 8 -14 8 -21 0 -100 66
-141 119 -146 186 -177 452 -77 651 28 56 33 60 65 60 29 0 118 -33 135 -50 3
-3 11 -6 18 -8 7 -1 45 -22 85 -46 105 -63 307 -169 307 -161 0 4 7 2 15 -5 8
-7 15 -10 15 -7 0 4 31 -7 68 -23 38 -16 115 -39 173 -50 179 -38 335 -19 497
60 34 16 67 30 72 30 6 0 10 5 10 10 0 6 7 10 16 10 20 0 264 245 264 265 0 8
5 15 10 15 6 0 10 7 10 15 0 8 5 15 10 15 6 0 9 4 8 8 -2 5 16 38 40 74 51 80
173 328 166 339 -2 5 -33 -12 -67 -37 -134 -97 -176 -123 -277 -176 -178 -95
-318 -128 -535 -128 -205 0 -364 35 -480 106 -33 20 -69 42 -81 48 -46 25 -87
69 -140 148 -74 113 -95 183 -102 336 -6 170 13 261 103 482 52 126 57 141 61
158 1 7 9 23 17 35 22 35 210 477 202 477 -2 0 19 55 47 123 98 239 150 372
151 390 1 9 4 17 7 17 4 0 7 6 7 13 0 8 18 64 41 125 47 125 50 158 27 297 -8
50 -15 109 -15 132 0 51 -20 44 225 74 252 30 590 38 670 14 237 -68 350 -247
316 -499 -12 -92 -57 -285 -85 -365 -9 -24 -13 -47 -10 -52 3 -5 0 -9 -6 -9
-7 0 -10 -6 -7 -14 3 -7 0 -19 -6 -25 -6 -6 -8 -11 -4 -11 4 0 -2 -24 -14 -52
-11 -29 -35 -93 -54 -143 -63 -171 -173 -399 -254 -530 -73 -120 -131 -253
-131 -305 0 -18 79 -21 139 -6 145 37 319 160 556 393 193 189 288 317 417
558 82 153 162 340 153 355 -3 6 -1 10 5 10 7 0 10 6 7 14 -3 8 -3 17 1 20 3
4 7 16 9 28 2 11 12 51 23 87 29 99 61 271 74 401 14 137 -7 127 221 110 163
-12 331 -38 419 -64 27 -8 53 -13 58 -10 4 3 8 0 8 -6 0 -6 6 -10 13 -8 17 3
53 -10 122 -44 83 -42 147 -91 177 -135 34 -50 53 -155 43 -236 -5 -34 -10
-75 -11 -92 -1 -16 -3 -30 -4 -30 -6 0 -5 -47 0 -50 8 -5 83 51 169 127 30 26
60 48 65 48 6 1 38 23 71 50 102 84 193 149 199 143 3 -4 6 -1 6 5 0 7 7 12
15 12 8 0 15 5 15 10 0 6 6 10 14 10 8 0 16 4 18 9 4 10 256 155 290 167 13 4
26 7 31 6 4 -1 7 3 7 9 0 5 5 7 10 4 6 -3 10 -1 10 6 0 7 3 10 6 6 3 -3 29 4
58 15 114 46 296 100 425 125 129 26 152 27 436 27 289 0 305 -1 427 -27 247
-53 403 -134 515 -270 69 -83 140 -254 164 -393 6 -38 13 -70 14 -72 2 -2 23
18 47 44 91 100 286 267 397 342 151 102 303 192 334 197 13 3 53 18 90 35 99
45 285 98 426 122 104 18 167 21 356 21 310 1 396 -16 528 -102 40 -27 103
-76 140 -111 37 -35 70 -61 72 -58 9 8 54 191 50 199 -3 4 0 11 6 14 5 4 8 13
5 21 -3 7 -1 16 4 19 6 4 10 20 10 37 l0 30 58 -3 c31 -2 62 -6 67 -9z
m-11440 -1286 c-20 -49 -95 -237 -166 -419 -72 -181 -134 -334 -138 -338 -8
-8 -219 40 -234 53 -8 7 169 398 259 569 33 63 71 122 84 133 34 25 224 107
228 98 2 -5 -13 -48 -33 -96z"/>
<path d="M25510 4763 c-274 -53 -461 -180 -594 -403 -57 -96 -189 -360 -183
-366 10 -10 355 46 504 82 318 76 540 254 560 449 13 127 -74 225 -212 238
-27 3 -61 3 -75 0z"/>
<path d="M23515 4149 c-66 -33 -149 -73 -185 -88 -56 -24 -313 -146 -597 -281
l-82 -39 13 -43 c92 -293 266 -520 531 -691 71 -46 224 -125 325 -170 l56 -24
-46 91 c-53 106 -82 190 -106 306 -25 124 -15 371 19 495 39 138 73 228 142
373 35 72 61 132 57 131 -4 0 -61 -27 -127 -60z"/>
<path d="M16030 4724 c-25 -8 -58 -16 -73 -19 -76 -14 -246 -126 -371 -245
-72 -68 -195 -220 -245 -303 -85 -140 -159 -368 -168 -518 -11 -170 60 -322
190 -409 165 -111 508 -139 787 -65 179 48 293 97 375 160 59 45 174 120 184
120 4 0 30 11 58 24 50 23 51 25 86 115 19 50 56 145 82 211 26 66 48 125 49
130 1 6 5 15 9 22 14 23 -15 24 -121 4 -59 -11 -186 -34 -282 -51 -96 -17
-208 -37 -249 -45 -40 -8 -93 -15 -117 -15 l-44 0 0 38 c0 20 12 87 25 147
105 474 112 578 45 658 -44 53 -132 69 -220 41z"/>
<path d="M18974 4721 c-33 -9 -66 -15 -72 -13 -7 2 -12 0 -12 -5 0 -5 -9 -9
-20 -10 -29 -2 -155 -78 -246 -149 -143 -111 -267 -267 -377 -474 -48 -90
-111 -256 -102 -270 3 -5 1 -11 -4 -14 -5 -4 -10 -19 -10 -34 0 -15 -4 -60 -9
-99 -8 -68 1 -220 15 -253 3 -8 5 -19 4 -24 -6 -26 89 -139 119 -141 3 0 10
-3 15 -6 13 -8 97 -8 110 0 11 6 17 8 39 10 8 0 54 28 103 60 158 106 518 479
687 711 38 52 82 112 99 133 40 53 131 229 156 304 12 34 21 79 21 100 0 43
-32 101 -72 132 -71 56 -315 79 -444 42z"/>
</g>
</svg>
