<?xml version="1.0" encoding="utf-8"?>
<!-- Generator: Adobe Illustrator 19.0.0, SVG Export Plug-In . SVG Version: 6.00 Build 0)  -->
<svg version="1.1" id="Layer_1" xmlns="http://www.w3.org/2000/svg" xmlns:xlink="http://www.w3.org/1999/xlink" x="0px" y="0px"
	 viewBox="0 0 158 156.5" style="enable-background:new 0 0 158 156.5;" xml:space="preserve">
<style type="text/css">
	.st0{clip-path:url(#SVGID_2_);fill:#ED1E79;}
	.st1{clip-path:url(#SVGID_2_);fill:#FF7BAC;}
</style>
<g>
	<defs>
		<rect id="SVGID_1_" x="-187" y="-206.4" width="566.9" height="566.9"/>
	</defs>
	<clipPath id="SVGID_2_">
		<use xlink:href="#SVGID_1_"  style="overflow:visible;"/>
	</clipPath>
	<path class="st0" d="M127.8,70.7c0,2.4-1.9,4.3-4.3,4.3s-4.3-1.9-4.3-4.3c0-2.4,1.9-4.3,4.3-4.3S127.8,68.3,127.8,70.7"/>
	<path class="st0" d="M129.6,88.6c-1.3-0.5-3.6-1.3-6.6-1.3c-2.5,0.1-4.5,0.7-5.7,1.3v-6.2c0-3.4,2.8-6.2,6.2-6.2s6.2,2.8,6.2,6.2
		V88.6z"/>
	<path class="st0" d="M34.9,72.8c0,2.4-1.9,4.3-4.3,4.3s-4.3-1.9-4.3-4.3c0-2.4,1.9-4.3,4.3-4.3S34.9,70.4,34.9,72.8"/>
	<path class="st0" d="M36.8,90.7c-0.7-0.5-3.1-2.2-6.6-2.1c-3,0.1-5,1.5-5.7,2.1v-6.2c0-3.4,2.8-6.2,6.2-6.2s6.2,2.8,6.2,6.2V90.7z"
		/>
	<path class="st0" d="M82.6,116.3c0,2.4-1.9,4.3-4.3,4.3s-4.3-1.9-4.3-4.3c0-2.4,1.9-4.3,4.3-4.3S82.6,113.9,82.6,116.3"/>
	<path class="st0" d="M84.4,134.2c-0.7-0.6-2.8-2-5.7-2.1c-3.5-0.1-5.9,1.6-6.6,2.1V128c0-3.4,2.8-6.2,6.2-6.2s6.2,2.8,6.2,6.2
		V134.2z"/>
	<path class="st1" d="M32.7,67.7c-0.1,0-0.2,0-0.4-0.1c-0.7-0.2-1-0.9-0.8-1.6c3-9.6,9.1-18.3,17.2-24.3c8.4-6.3,18.4-9.6,28.9-9.6
		c10,0,19.6,3,27.8,8.8c8,5.6,14,13.4,17.4,22.5c0.2,0.6-0.1,1.4-0.7,1.6c-0.6,0.2-1.4-0.1-1.6-0.7c-6.7-17.8-23.9-29.7-42.9-29.7
		c-20.2,0-37.7,12.9-43.7,32.2C33.8,67.3,33.3,67.7,32.7,67.7"/>
	<path class="st1" d="M68.9,127.9c-0.1,0-0.2,0-0.2,0C50.6,124.5,35.8,110.8,31,93c-0.2-0.7,0.2-1.4,0.9-1.5
		c0.7-0.2,1.4,0.2,1.5,0.9c4.5,16.8,18.6,29.8,35.7,33c0.7,0.1,1.1,0.8,1,1.5C70,127.5,69.5,127.9,68.9,127.9"/>
	<path class="st1" d="M86.4,127.9c-0.6,0-1.1-0.4-1.2-1c-0.1-0.7,0.3-1.3,1-1.5c17.8-3.3,31.9-16.9,36-34.5c0.2-0.7,0.8-1.1,1.5-0.9
		c0.7,0.2,1.1,0.8,0.9,1.5c-4.4,18.6-19.3,32.8-38,36.3C86.6,127.9,86.5,127.9,86.4,127.9"/>
	<path class="st1" d="M89.7,34.1c0,6.5-5.2,11.7-11.7,11.7c-6.5,0-11.7-5.2-11.7-11.7c0-6.5,5.2-11.7,11.7-11.7
		C84.5,22.4,89.7,27.6,89.7,34.1"/>
	<path class="st1" d="M94.7,82.6c-3.4-1.4-9.2-3.3-16.7-3.3c-3.6,0-9.8,0.5-16.7,3.3V65.9c0-9.2,7.5-16.7,16.7-16.7
		c9.2,0,16.7,7.5,16.7,16.7V82.6z"/>
	<path class="st0" d="M78.5,154.6c-41.9,0-76-34.1-76-76c0-41.9,34.1-76,76-76s76,34.1,76,76C154.5,120.5,120.4,154.6,78.5,154.6
		 M78.5,7.3c-39.3,0-71.3,32-71.3,71.3s32,71.3,71.3,71.3s71.3-32,71.3-71.3S117.8,7.3,78.5,7.3"/>
</g>
</svg>
