<svg width="40" height="40" viewBox="0 0 40 40" fill="none" xmlns="http://www.w3.org/2000/svg">
<path d="M20.0002 36.6663C29.2052 36.6663 36.6668 29.2047 36.6668 19.9997C36.6668 10.7947 29.2052 3.33301 20.0002 3.33301C10.7952 3.33301 3.3335 10.7947 3.3335 19.9997C3.3335 29.2047 10.7952 36.6663 20.0002 36.6663Z" stroke="white" stroke-width="3" stroke-linecap="round" stroke-linejoin="round"/>
<path d="M20 27.3177V30.8327M25 14.166C23.8583 13.0243 21.8483 12.231 20 12.181L25 14.166ZM15 24.9993C16.0733 26.4327 18.0717 27.2493 20 27.3177L15 24.9993ZM20 12.181C17.8 12.121 15.8333 13.116 15.8333 15.8327C15.8333 20.8327 25 18.3327 25 23.3327C25 26.1843 22.56 27.4093 20 27.3177V12.181ZM20 12.181V9.16602V12.181Z" stroke="white" stroke-width="3" stroke-linecap="round" stroke-linejoin="round"/>
</svg>
