<?xml version="1.0" encoding="utf-8"?>
<!-- Generator: Adobe Illustrator 19.0.0, SVG Export Plug-In . SVG Version: 6.00 Build 0)  -->
<svg version="1.1" id="Layer_1" xmlns="http://www.w3.org/2000/svg" xmlns:xlink="http://www.w3.org/1999/xlink" x="0px" y="0px"
	 viewBox="0 0 156 159" style="enable-background:new 0 0 156 159;" xml:space="preserve">
<style type="text/css">
	.st0{clip-path:url(#SVGID_2_);fill:#ED1E79;}
</style>
<g>
	<defs>
		<rect id="SVGID_1_" x="-194" y="-175.9" width="566.9" height="566.9"/>
	</defs>
	<clipPath id="SVGID_2_">
		<use xlink:href="#SVGID_1_"  style="overflow:visible;"/>
	</clipPath>
	<path class="st0" d="M78.1,155.6c-41.9,0-76-34.1-76-76c0-41.9,34.1-76,76-76s76,34.1,76,76C154.1,121.5,120,155.6,78.1,155.6
		 M78.1,8.4c-39.3,0-71.3,32-71.3,71.3s32,71.3,71.3,71.3s71.3-32,71.3-71.3S117.4,8.4,78.1,8.4"/>
	<path class="st0" d="M50.4,113.2c0,1.7-1.3,3-3,3c-1.7,0-3-1.3-3-3c0-1.7,1.3-3,3-3C49.1,110.1,50.4,111.5,50.4,113.2"/>
	<path class="st0" d="M51.7,125.6c-0.9-0.4-2.5-0.9-4.6-0.9c-1.8,0-3.2,0.5-4,0.9v-4.3c0-2.4,1.9-4.3,4.3-4.3c2.4,0,4.3,1.9,4.3,4.3
		V125.6z"/>
	<path class="st0" d="M82.7,114.2c0,1.7-1.3,3-3,3c-1.7,0-3-1.3-3-3c0-1.7,1.3-3,3-3C81.3,111.1,82.7,112.5,82.7,114.2"/>
	<path class="st0" d="M84,126.6c-0.9-0.4-2.5-0.9-4.6-0.9c-1.8,0-3.2,0.5-4,0.9v-4.3c0-2.4,1.9-4.3,4.3-4.3s4.3,1.9,4.3,4.3V126.6z"
		/>
	<path class="st0" d="M111.8,114.2c0,1.7-1.3,3-3,3c-1.7,0-3-1.3-3-3c0-1.7,1.3-3,3-3C110.5,111.1,111.8,112.5,111.8,114.2"/>
	<path class="st0" d="M113.1,126.6c-0.9-0.4-2.5-0.9-4.6-0.9c-1.8,0-3.2,0.5-4,0.9v-4.3c0-2.4,1.9-4.3,4.3-4.3s4.3,1.9,4.3,4.3
		V126.6z"/>
	<path class="st0" d="M78.2,32.6c-14.6,0-26.5,11.9-26.5,26.5c0,6.4,2.3,12.3,6.1,16.9c0.5,0.6,1,1.1,1.5,1.7c0.5,0.5,1,1,1.6,1.5
		c4.5,3.9,10.3,6.3,16.6,6.4c0.2,0,0.4,0,0.7,0c0.5,0,0.9,0,1.3,0c0.7,0,1.3-0.1,2-0.2c5.3-0.7,10.1-2.9,14-6.2
		c0.5-0.5,1.1-1,1.6-1.5c0.5-0.5,1-1.1,1.5-1.7c3.8-4.6,6.1-10.5,6.1-16.9C104.7,44.5,92.8,32.6,78.2,32.6 M97.4,74.9
		c-0.8,1-1.6,1.9-2.6,2.7c-3.6,3.3-8.3,5.5-13.3,6.2c-0.7,0.1-1.3,0.2-2,0.2c-0.4,0-0.9,0-1.3,0c-0.2,0-0.4,0-0.7,0
		c-6.2-0.2-11.8-2.6-16-6.4c-0.9-0.8-1.8-1.7-2.6-2.7c-3.5-4.3-5.6-9.8-5.6-15.7c0-13.7,11.2-24.9,24.8-24.9
		c13.7,0,24.9,11.2,24.9,24.9C103,65.1,100.9,70.6,97.4,74.9"/>
	<path class="st0" d="M85.2,55.9v-2.6c0-4.2-3.5-7.7-7.7-7.7c-4.2,0-7.7,3.4-7.7,7.7v2.6h-2.9v16.7H88V55.9H85.2z M72.4,53.3
		c0-2.8,2.3-5.1,5.1-5.1c2.8,0,5.1,2.3,5.1,5.1v2.6H72.4V53.3z M85.4,70.6H69.6V58h15.8V70.6z"/>
	<path class="st0" d="M61.5,77.5l-0.6,1.7l-9.3,25.2c-0.3,0.8-1.1,1.3-1.9,1.3c-0.2,0-0.5,0-0.7-0.1c-1-0.4-1.6-1.5-1.2-2.6l10-27
		l0,0c0.2-0.6,0.6-1,1.1-1.1C59.7,75.8,60.6,76.7,61.5,77.5"/>
	<path class="st0" d="M107.4,105.6c-0.2,0.1-0.5,0.1-0.7,0.1c-0.8,0-1.6-0.5-1.9-1.3l-9.3-25.2l-0.6-1.7c0.9-0.8,1.8-1.7,2.6-2.7
		c0.5,0.2,0.9,0.6,1.1,1.1l0,0l10,27C108.9,104,108.4,105.2,107.4,105.6"/>
	<path class="st0" d="M81.5,83.8v19.9c0,1.1-0.9,2-2,2c-1.1,0-2-0.9-2-2V84c0.2,0,0.4,0,0.7,0c0.5,0,0.9,0,1.3,0
		C80.2,83.9,80.8,83.9,81.5,83.8"/>
</g>
</svg>
