<?xml version="1.0" encoding="utf-8"?>
<!-- Generator: Adobe Illustrator 19.0.0, SVG Export Plug-In . SVG Version: 6.00 Build 0)  -->
<svg version="1.1" id="Layer_1" xmlns="http://www.w3.org/2000/svg" xmlns:xlink="http://www.w3.org/1999/xlink" x="0px" y="0px"
	 viewBox="0 0 159 158" style="enable-background:new 0 0 159 158;" xml:space="preserve">
<style type="text/css">
	.st0{fill:#FF7BAC;}
	.st1{clip-path:url(#SVGID_2_);fill:#FF7BAC;}
	.st2{clip-path:url(#SVGID_2_);fill:#ED1E79;}
</style>
<polygon class="st0" points="97.7,94.2 58.7,92.8 55,74.4 90,56.3 "/>
<g>
	<defs>
		<rect id="SVGID_1_" x="-182" y="-208.9" width="566.9" height="566.9"/>
	</defs>
	<clipPath id="SVGID_2_">
		<use xlink:href="#SVGID_1_"  style="overflow:visible;"/>
	</clipPath>
	<path class="st1" d="M56.7,93.2l-9.1,1.9c-0.5,0.1-1-0.2-1.1-0.7l-3.4-16.6c-0.1-0.5,0.2-1,0.7-1.1l9.1-1.9c0.5-0.1,1,0.2,1.1,0.7
		l3.4,16.6C57.5,92.6,57.2,93.1,56.7,93.2"/>
	<path class="st1" d="M44.9,92.2l-9.1-1c-1.5-0.2-2.8-1.3-3-2.8c-0.3-1.5,0.4-2.9,1.7-3.7l8.2-4.7L44.9,92.2z"/>
	<path class="st1" d="M54.9,108l-0.3,0.1c-1.3,0.3-2.5-0.6-2.8-1.8l-3.3-16.1l4.9-1l3.3,16.1C57,106.5,56.1,107.7,54.9,108"/>
	<line class="st1" x1="100.1" y1="73" x2="123.4" y2="66.4"/>
	<path class="st1" d="M100.1,74.7c-0.6,0-1.2-0.5-1.3-1.3c-0.2-0.9,0.3-1.8,1-2l23.3-6.7c0.7-0.2,1.5,0.3,1.7,1.2s-0.3,1.8-1,2
		l-23.3,6.7C100.3,74.7,100.2,74.7,100.1,74.7"/>
	<line class="st1" x1="101.1" y1="82.9" x2="119.9" y2="87.9"/>
	<path class="st1" d="M119.9,89.5c-0.1,0-0.3,0-0.4-0.1l-18.9-5c-0.9-0.2-1.4-1.1-1.1-2c0.2-0.9,1.1-1.4,2-1.1l18.9,5
		c0.9,0.2,1.4,1.1,1.1,2C121.3,89.1,120.6,89.5,119.9,89.5"/>
	<line class="st1" x1="97" y1="65" x2="109.5" y2="52.7"/>
	<path class="st1" d="M97,66.6c-0.4,0-0.8-0.2-1.1-0.5c-0.6-0.6-0.6-1.6,0-2.3l12.5-12.3c0.6-0.6,1.6-0.6,2.3,0
		c0.6,0.6,0.6,1.6,0,2.3L98.1,66.1C97.8,66.4,97.4,66.6,97,66.6"/>
	<path class="st2" d="M78.6,156.1c-41.9,0-76-34.1-76-76c0-41.9,34.1-76,76-76s76,34.1,76,76C154.6,122,120.5,156.1,78.6,156.1
		 M78.6,8.8c-39.3,0-71.3,32-71.3,71.3s32,71.3,71.3,71.3s71.3-32,71.3-71.3S117.9,8.8,78.6,8.8"/>
</g>
</svg>
