<svg width="49" height="40" viewBox="0 0 49 40" fill="none" xmlns="http://www.w3.org/2000/svg">
<path d="M48.2563 5.28513C46.5167 6.05596 44.648 6.5768 42.6834 6.81221C44.7105 5.59928 46.227 3.69027 46.9501 1.44138C45.0456 2.57261 42.9612 3.36887 40.7876 3.79555C39.3259 2.23485 37.3898 1.20039 35.2799 0.852784C33.17 0.505175 31.0044 0.863862 29.1193 1.87316C27.2342 2.88245 25.735 4.48588 24.8546 6.43451C23.9741 8.38314 23.7616 10.5679 24.2501 12.6497C20.3911 12.456 16.616 11.4529 13.1697 9.70577C9.72344 7.95859 6.68307 5.5063 4.2459 2.50805C3.41256 3.94555 2.9334 5.61221 2.9334 7.38721C2.93247 8.98512 3.32597 10.5586 4.07898 11.9679C4.83199 13.3773 5.92123 14.579 7.25006 15.4664C5.70897 15.4173 4.20188 15.0009 2.85423 14.2518V14.3768C2.85408 16.6179 3.6293 18.7901 5.04836 20.5247C6.46743 22.2593 8.44292 23.4496 10.6396 23.8935C9.21003 24.2804 7.71118 24.3374 6.25631 24.0601C6.8761 25.9885 8.08339 27.6748 9.70916 28.8829C11.3349 30.091 13.2978 30.7605 15.323 30.7976C11.8851 33.4964 7.63941 34.9603 3.26882 34.9539C2.49461 34.9541 1.72106 34.9089 0.952148 34.8185C5.38856 37.6709 10.5529 39.1848 15.8271 39.1789C33.6813 39.1789 43.4417 24.3914 43.4417 11.5664C43.4417 11.1497 43.4313 10.7289 43.4126 10.3122C45.3111 8.93924 46.9499 7.23908 48.2521 5.29138L48.2563 5.28513Z" fill="#C62F70"/>
</svg>
