<?xml version="1.0" encoding="utf-8"?>
<!-- Generator: Adobe Illustrator 19.0.0, SVG Export Plug-In . SVG Version: 6.00 Build 0)  -->
<svg version="1.1" id="Layer_1" xmlns="http://www.w3.org/2000/svg" xmlns:xlink="http://www.w3.org/1999/xlink" x="0px" y="0px"
	 viewBox="0 0 142 139" style="enable-background:new 0 0 142 139;" xml:space="preserve">
<style type="text/css">
	.st0{clip-path:url(#SVGID_2_);fill:#ED1E79;}
	.st1{clip-path:url(#SVGID_2_);fill:#F4F4F4;}
	.st2{clip-path:url(#SVGID_2_);fill:#FF7BAC;}
</style>
<g>
	<defs>
		<rect id="SVGID_1_" x="-204" y="-184.9" width="566.9" height="566.9"/>
	</defs>
	<clipPath id="SVGID_2_">
		<use xlink:href="#SVGID_1_"  style="overflow:visible;"/>
	</clipPath>
	<path class="st0" d="M60.1,126.9l0.6,8.2c0.1,1.7,1.6,3,3.3,3l4.7,0l4.6,0l4.7,0c1.7,0,3.1-1.3,3.3-3l0.6-8.3
		c0.1-1.4,1.1-2.6,2.4-2.9c5-1.3,9.7-3.3,14-5.8c1.2-0.7,2.7-0.6,3.8,0.4l6.2,5.4c1.3,1.1,3.2,1.1,4.4-0.1l3.4-3.3l3.3-3.2l3.4-3.3
		c1.2-1.2,1.3-3.1,0.2-4.4l-5.4-6.4c-0.9-1.1-1-2.6-0.3-3.8c2.8-4.6,4.9-9.7,6.3-15.1c0.3-1.4,1.5-2.3,2.9-2.5l8.2-0.6
		c1.7-0.1,3-1.6,3-3.3V73v-4.6v-4.7c0-1.7-1.3-3.1-3-3.3l-8.3-0.6c-1.4-0.1-2.6-1.1-2.9-2.4c-1.3-5-3.3-9.8-5.9-14.2
		c-0.7-1.2-0.6-2.7,0.3-3.8l5.4-6.2c1.1-1.3,1.1-3.2-0.1-4.4l-3.3-3.4l-3.2-3.3l-3.3-3.4c-1.2-1.2-3.1-1.3-4.4-0.2l-6.4,5.4
		c-1.1,0.9-2.6,1-3.8,0.3c-4.6-2.8-9.7-4.9-15-6.2c-1.4-0.3-2.4-1.5-2.5-2.9l-0.6-8.2c-0.1-1.7-1.6-3-3.3-3l-4.7,0l-4.6,0l-4.7,0
		c-1.7,0-3.1,1.3-3.3,3l-0.6,8.3c-0.1,1.4-1.1,2.6-2.4,2.9c-5.3,1.4-10.3,3.5-14.8,6.3c-1.2,0.7-2.7,0.6-3.8-0.3l-6.3-5.3
		c-1.3-1.1-3.2-1-4.4,0.2l-3.3,3.4l-3.2,3.3l-3.3,3.4c-1.2,1.2-1.3,3.2-0.1,4.4l5.5,6.3c0.9,1,1.1,2.6,0.4,3.8
		c-2.7,4.7-4.7,9.8-6,15.2c-0.3,1.4-1.5,2.4-2.9,2.5l-8.2,0.8c-1.7,0.2-3,1.6-2.9,3.3l0.1,4.7l0.1,4.6l0.1,4.7
		c0,1.7,1.4,3.1,3.1,3.2l8.4,0.5c1.4,0.1,2.6,1,3,2.4c1.4,4.9,3.4,9.4,5.9,13.6c0.7,1.2,0.6,2.7-0.3,3.8l-5.3,6.3
		c-1.1,1.3-1,3.2,0.2,4.4l3.4,3.3l3.3,3.3l3.4,3.3c1.2,1.2,3.1,1.3,4.4,0.2l6.3-5.5c1.1-0.9,2.6-1.1,3.8-0.3
		c4.4,2.6,9.3,4.6,14.4,5.9C59,124.3,60,125.5,60.1,126.9"/>
	<path class="st1" d="M114.2,71c0,24.1-19.5,43.6-43.6,43.6C46.6,114.5,27.1,95,27.1,71c0-24.1,19.5-43.6,43.6-43.6
		C94.7,27.4,114.2,46.9,114.2,71"/>
	<path class="st2" d="M70.7,110.3C49,110.3,31.3,92.6,31.3,71c0-21.7,17.6-39.3,39.3-39.3S110,49.3,110,71
		C110,92.6,92.4,110.3,70.7,110.3 M70.7,35c-19.8,0-36,16.1-36,36c0,19.8,16.1,36,36,36s36-16.1,36-36C106.6,51.1,90.5,35,70.7,35"
		/>
	<polygon class="st0" points="78.3,62.4 95.6,64.5 83.5,77 86.9,94.1 71.2,86.4 56,94.9 58.5,77.6 45.7,65.8 62.9,62.8 70.2,47 	"/>
</g>
</svg>
